<svg xmlns="http://www.w3.org/2000/svg" viewBox="0 0 66.01 29.87"><defs><style>.cls-1{fill:#fff;}</style></defs><g id="Layer_2" data-name="Layer 2"><g id="Desktop_-_Staking_LP" data-name="Desktop - Staking LP"><path class="cls-1" d="M13.82,13.2a2,2,0,0,0-2.69,1,2,2,0,0,0,3.6,0A1.93,1.93,0,0,0,13.82,13.2Z"/><path class="cls-1" d="M24.84,10.38a2.08,2.08,0,0,0,.34-.24,1.84,1.84,0,0,0,.57-.86,2,2,0,0,0-.22-1.75,2,2,0,0,0-1.27-.87,2,2,0,0,0-1.49.27.88.88,0,0,1-.91,0l-6-3.45a1.27,1.27,0,0,1-.64-1.11,2.21,2.21,0,0,0-.21-1A2.3,2.3,0,0,0,13.86.2,2.24,2.24,0,0,0,12,.2a2.32,2.32,0,0,0-1.24,1.28,2.44,2.44,0,0,0-.16.88A1.24,1.24,0,0,1,10,3.48L3.6,7.17a1.16,1.16,0,0,1-1,.07L2.4,7.17a1.47,1.47,0,0,0-1.14.16h0A1.46,1.46,0,0,0,.52,8.44a1.43,1.43,0,0,0,.09.74,1.5,1.5,0,0,0,.56.7.85.85,0,0,1,.37.72v8.11a.84.84,0,0,1-.47.75,2.27,2.27,0,0,0-.55.43,2,2,0,0,0-.48.95,2,2,0,0,0,.44,1.71,2,2,0,0,0,.86.59,2,2,0,0,0,1.15.06,2.88,2.88,0,0,0,.63-.32.72.72,0,0,1,.75,0L10,26.38a1.3,1.3,0,0,1,.64,1.13,2.36,2.36,0,0,0,.15.86,2.33,2.33,0,0,0,2.17,1.5,2.37,2.37,0,0,0,.82-.15,2.3,2.3,0,0,0,1.5-2.21,1.29,1.29,0,0,1,.66-1.14l6.35-3.66a1.16,1.16,0,0,1,1-.08l.18.07a1.81,1.81,0,0,0,.39.05,1.5,1.5,0,0,0,1-.35,1.45,1.45,0,0,0,.39-.5,1.53,1.53,0,0,0-.05-1.41,1.7,1.7,0,0,0-.32-.38,1.47,1.47,0,0,1-.51-1.1V11.3A1.11,1.11,0,0,1,24.84,10.38ZM14.38,4.16h0a.6.6,0,0,1,.68,0l6.4,3.71a.13.13,0,0,1-.07.24l-4-.16a1,1,0,0,1-.86-.56A2,2,0,0,0,15,6.27h0a.69.69,0,0,1-.57-.5l-.3-1A.63.63,0,0,1,14.38,4.16ZM13.69,8a1.07,1.07,0,0,1,1.16-.83,1.1,1.1,0,0,1,.55.24,1,1,0,0,1,.31.4.9.9,0,0,1,.08.36A1.06,1.06,0,1,1,13.69,8Zm1.13,7.41a1.95,1.95,0,1,1-1-2.23A2,2,0,0,1,14.82,15.43ZM11.64,1.87A1.35,1.35,0,0,1,12.56,1a1.28,1.28,0,0,1,.7,0,1.37,1.37,0,0,1,.23,2.59h0a1.38,1.38,0,0,1-1.85-.81A1.3,1.3,0,0,1,11.64,1.87ZM3.35,9.34a1.43,1.43,0,0,0,.17-.61.82.82,0,0,1,.4-.64L10.7,4.17a.79.79,0,0,1,.87,0,2.31,2.31,0,0,0,1.15.43.67.67,0,0,1,.56.45l.3,1a.64.64,0,0,1-.19.66,2,2,0,0,0-.31,2.65l.28.28a.89.89,0,0,1,.26.9l-.22.81a.91.91,0,0,1-.77.67,2.91,2.91,0,0,0-2.4,1.85,2.81,2.81,0,0,0-.17.75.84.84,0,0,1-.63.73l-.85.22a.85.85,0,0,1-.84-.25,2.07,2.07,0,0,0-1.28-.64A1.37,1.37,0,0,1,5.38,14l-2-3.92A.76.76,0,0,1,3.35,9.34ZM6.68,17.7a1.07,1.07,0,0,1-1.37-.47,1.05,1.05,0,0,1,0-1.07A.83.83,0,0,1,5.52,16a1.06,1.06,0,0,1,1.67.29A1.07,1.07,0,0,1,6.68,17.7ZM1.54,8.91a.56.56,0,0,1,.2-.75h0A.57.57,0,0,1,2,8.08l.15,0a.56.56,0,0,1,.18,1,.56.56,0,0,1-.47.1A.58.58,0,0,1,1.54,8.91Zm1,13.27a1.18,1.18,0,0,1-.36.12,1.07,1.07,0,0,1-1-.37h0a1,1,0,0,1-.22-1,1.16,1.16,0,0,1,.18-.35,1.06,1.06,0,0,1,.93-.41l.27.06a1.13,1.13,0,0,1,.58.5,1.37,1.37,0,0,1,.11.36A1,1,0,0,1,2.52,22.18Zm.7-2.91a.39.39,0,0,1-.45.1h0A.41.41,0,0,1,2.49,19V11A.13.13,0,0,1,2.73,11l1.79,3.47a1.36,1.36,0,0,1,0,1.3,1.93,1.93,0,0,0-.27.94,2.26,2.26,0,0,0,.1.74.86.86,0,0,1-.19.87Zm10.91,9a1.38,1.38,0,0,1-2.57-.56,1.44,1.44,0,0,1,.06-.55,1.38,1.38,0,0,1,1.31-.94,1.38,1.38,0,0,1,1.2,2Zm.08-3.57a1.25,1.25,0,0,1-1.15.57,2.36,2.36,0,0,0-1.32.33,1.27,1.27,0,0,1-1.28,0l-6-3.47a.72.72,0,0,1-.36-.71,1.46,1.46,0,0,0-.16-.84.72.72,0,0,1,.14-.79l.77-.84a.88.88,0,0,1,.87-.25,2,2,0,0,0,2.5-1.52.82.82,0,0,1,.6-.62l.86-.23a.81.81,0,0,1,.89.31,2.89,2.89,0,0,0,1.34,1,2.84,2.84,0,0,0,2.07,0,1.19,1.19,0,0,1,1.26.26l.33.34a1.17,1.17,0,0,1,.31,1.11A2.09,2.09,0,0,0,16,20.74,1.16,1.16,0,0,1,16,21.89Zm7.61-2.79-6,3.48a.34.34,0,0,1-.47-.46l1.53-2.58a.93.93,0,0,1,.86-.45,2,2,0,0,0,1.54-.59h0A1.15,1.15,0,0,1,20.39,21l1.37.38A.28.28,0,0,1,21.82,21.86ZM17.16,19a1.06,1.06,0,0,1,1.34,0,1.07,1.07,0,0,1,0,1.65,1.06,1.06,0,0,1-1.34,0A1.07,1.07,0,0,1,17.16,19Zm5.77,1h0a1.18,1.18,0,0,1-1.05.26l-1.3-.3a1.15,1.15,0,0,1-.83-.77,2,2,0,0,0-2.41-1.34,1.19,1.19,0,0,1-1.11-.31l-.32-.32A1.21,1.21,0,0,1,15.64,16h0a2.92,2.92,0,0,0-1-3.38.89.89,0,0,1-.34-.95l.2-.78a.92.92,0,0,1,.66-.65,2,2,0,0,0,1.25-.89,1,1,0,0,1,.92-.48l4,.16a.83.83,0,0,1,.71.49,2,2,0,0,0,.9.93.83.83,0,0,1,.45.73v8A1.1,1.1,0,0,1,22.93,20Zm1.4.93a.56.56,0,0,1-.93.61.59.59,0,0,1-.1-.48.57.57,0,0,1,.26-.34.55.55,0,0,1,.28-.07.39.39,0,0,1,.15,0A.63.63,0,0,1,24.33,21ZM24.17,9.64a1,1,0,0,1-.55,0A1.06,1.06,0,0,1,22.85,9a1.28,1.28,0,0,1-.07-.39,1.06,1.06,0,0,1,1.49-1,1.18,1.18,0,0,1,.32.21,1.07,1.07,0,0,1,.23,1.2.9.9,0,0,1-.21.3A1,1,0,0,1,24.17,9.64Z"/><path class="cls-1" d="M28.08,13.4l.91-1a2.91,2.91,0,0,0,2.47,1.34c.83,0,1.45-.3,1.45-1.12,0-.54-.29-.9-1.15-1l-1.23-.23c-1.28-.23-2.08-.93-2.08-2.19,0-1.53,1.16-2.28,2.72-2.28A3.85,3.85,0,0,1,34.05,8l-.82,1a2.87,2.87,0,0,0-2.14-1c-.69,0-1.2.27-1.2.93,0,.45.24.8,1,.93l1.22.23c1.35.24,2.28.95,2.28,2.33,0,1.56-1.18,2.53-3,2.53A3.82,3.82,0,0,1,28.08,13.4Z"/><path class="cls-1" d="M36.58,11c0-2.62,1.42-4.1,3.72-4.1S44,8.33,44,11,42.58,15,40.3,15,36.58,13.56,36.58,11Zm6,0c0-1.71-.8-2.79-2.24-2.79S38.06,9.24,38.06,11s.78,2.8,2.24,2.8S42.54,12.67,42.54,11Z"/><path class="cls-1" d="M46.72,7h1.5v6.67H52v1.28h-5.3Z"/><path class="cls-1" d="M54.43,7h1.5v8h-1.5Z"/><path class="cls-1" d="M59.11,7H62c2.73,0,4,1.47,4,4s-1.31,3.93-4,3.93H59.12V7Zm2.76,6.67c1.89,0,2.64-.93,2.64-2.7S63.81,8.27,62,8.27H60.61v5.37Z"/><path class="cls-1" d="M34.18,19.85v3.62h-.92v-1a2.45,2.45,0,0,1-2.17,1.09c-1.94,0-3-1.46-3-3.51s1.21-3.52,3.18-3.52a2.84,2.84,0,0,1,2.81,1.83l-.94.37a1.89,1.89,0,0,0-1.86-1.27c-1.37,0-2.12,1.05-2.12,2.57s.62,2.57,2.07,2.57a1.88,1.88,0,0,0,2-1.87H31.41v-.87h2.77Z"/><path class="cls-1" d="M36.77,16.63h3A2,2,0,0,1,42,18.57a1.77,1.77,0,0,1-1.39,1.81l1.64,3.1H41.05l-1.48-3H37.84v3H36.77V16.63Zm3.06,3a1,1,0,0,0,1.13-1c0-.67-.42-1.05-1.23-1.05H37.86v2.09Z"/><path class="cls-1" d="M44.05,20.05c0-2.22,1.21-3.52,3.16-3.52s3.15,1.3,3.15,3.52-1.23,3.51-3.15,3.51S44.05,22.27,44.05,20.05Zm5.25,0c0-1.58-.77-2.57-2.09-2.57s-2.1,1-2.1,2.57.76,2.57,2.1,2.57S49.3,21.62,49.3,20.05Z"/><path class="cls-1" d="M52.65,21V16.63h1.07V21a1.47,1.47,0,1,0,2.93,0V16.63h1.08v4.31a2.34,2.34,0,0,1-2.55,2.62A2.31,2.31,0,0,1,52.65,21Z"/><path class="cls-1" d="M60.45,16.63H63.7A2.07,2.07,0,0,1,66,18.82a2,2,0,0,1-2.3,2.1H61.53v2.55H60.45Z"/></g></g></svg>