<svg xmlns="http://www.w3.org/2000/svg" viewBox="0 0 828.03 112.4"><defs><style>.cls-1{fill:#fff;}</style></defs><g id="Layer_2" data-name="Layer 2"><g id="Mobile_-_Staking_LP_wallet_not_connected" data-name="Mobile - Staking LP, wallet not connected"><path d="M828,.23c-124.45,16.38-264.73,25.6-413.13,25.6C265.8,25.83,124.91,16.53,0,0L0,.24V112.4H828V.24Z"/><path d="M90.88,27.74S54.13-1.89,21.82,23.31c-8,6.25-12,16.59-9,26.32a19.5,19.5,0,0,0,2.63,5.58s-5.32,6.73-5.18,14.9c.12,7,3.75,51.77,79.45,28.11v4.14l233.67,0s15-2.3,23-9.21c0,0,25.46,24.52,76,6.91v3.31H494.7S512.16,98.89,514.47,92v11.37h63.3V79.45l17-21.74v45.64h83.18l0-11.94,12.65,12,40.28.12V95.35s43.17,18,74.13.42a20.14,20.14,0,0,0,7.14-6.8,41.28,41.28,0,0,0,6.23-17.71c1.15-12.67,1.15-61,1.15-61l-133,11.88V35.23L668,23.35s-93.41,8.53-107.22,7.38l-10,11.75L539.05,30.73l-116.63.51v7.64s-29.41-22.47-76.24,0c0,0-13.71-5.94-23.07-5.94,0,0-136.74-5.61-148.43-6.55-9.18-.74-83.8-6.16-83.8-6.16Z"/><path d="M387.42,109.26c-22.66,0-36.34-8.8-41.1-12.52-8.74,6.2-21.93,8.28-22.52,8.38a3.11,3.11,0,0,1-.43,0l-233.67,0a2.8,2.8,0,0,1-2.81-2.81V102c-29,8.5-50.75,7.77-64.54-2.19C8.82,90.05,7.51,74.64,7.44,70.15c-.12-6.63,2.91-12.33,4.63-15a23.14,23.14,0,0,1-2-4.69c-3.2-10.59.72-22.11,10-29.34,14-10.91,31-13.57,49.24-7.7a81.13,81.13,0,0,1,18.74,8.93V20.24a2.8,2.8,0,0,1,.9-2.06,2.77,2.77,0,0,1,2.11-.74c.75,0,74.74,5.43,83.82,6.16,11.42.91,144.88,6.4,148.27,6.54,8.28,0,19.31,4.21,22.94,5.68,37.16-17.39,63.43-7.45,73.5-2V31.24a2.81,2.81,0,0,1,2.79-2.81L539,27.92h0a2.83,2.83,0,0,1,2,.83l9.58,9.59,8-9.43a2.81,2.81,0,0,1,2.37-1c13.41,1.12,105.8-7.29,106.74-7.38a2.84,2.84,0,0,1,1.77.43l14.2,9.11v-8a2.81,2.81,0,0,1,2.56-2.8l133-11.87a2.8,2.8,0,0,1,3.06,2.79c0,2,0,48.63-1.16,61.27a44,44,0,0,1-6.65,18.95,22.92,22.92,0,0,1-8.14,7.75c-13.21,7.5-30.67,9.82-50.49,6.71a132.27,132.27,0,0,1-22.21-5.52v4.09a2.82,2.82,0,0,1-2.81,2.81h0l-40.28-.12a2.81,2.81,0,0,1-1.92-.77l-7.92-7.49v5.43a2.81,2.81,0,0,1-2.81,2.81H594.75a2.81,2.81,0,0,1-2.81-2.81V65.86L580.58,80.42v22.93a2.81,2.81,0,0,1-2.81,2.81h-63.3a2.81,2.81,0,0,1-2.81-2.81V99.22c-5.79,4-14.07,6.29-16.26,6.85a2.74,2.74,0,0,1-.7.09H422.42a2.82,2.82,0,0,1-2.75-2.25A106.62,106.62,0,0,1,387.42,109.26Zm-41-18.94a2.76,2.76,0,0,1,1.95.79c1,.94,25,23,73.16,6.27a2.81,2.81,0,0,1,3.73,2.66v.5h69.12c6.62-1.75,16.22-5.76,17.45-9.45a2.81,2.81,0,0,1,5.48.89v8.56H575V79.45a2.83,2.83,0,0,1,.59-1.73l17-21.74a2.81,2.81,0,0,1,5,1.73v42.83h77.57V91.41a2.8,2.8,0,0,1,4.73-2l11.85,11.19,36.35.11V95.35A2.81,2.81,0,0,1,732,92.76c.42.17,42.29,17.22,71.66.56a17.21,17.21,0,0,0,6.14-5.84A38.26,38.26,0,0,0,815.58,71c1-10.55,1.11-46.85,1.14-57.68L689.35,24.69V35.23A2.82,2.82,0,0,1,685,37.59L667.31,26.23c-10.15.92-88.26,7.93-105.29,7.38l-9.1,10.69a2.82,2.82,0,0,1-4.13.16l-10.9-10.91L425.23,34v4.84a2.8,2.8,0,0,1-4.51,2.23c-1.15-.86-28.74-21.08-73.32.31a2.81,2.81,0,0,1-2.34,0c-.13-.06-13.29-5.71-21.95-5.71H323c-5.58-.23-136.92-5.63-148.54-6.56-8-.64-66.7-4.91-80.76-5.94v4.48a2.81,2.81,0,0,1-4.57,2.18A74.88,74.88,0,0,0,67.44,18.7c-16.54-5.28-31.31-3-43.89,6.83C16.13,31.32,13,40.46,15.49,48.82a16.81,16.81,0,0,0,2.25,4.79A2.81,2.81,0,0,1,17.63,57c0,.06-4.69,6.09-4.57,13.11.06,3.83,1.16,17,12.57,25.2,12.86,9.28,34.13,9.38,63.23.28a2.82,2.82,0,0,1,3.65,2.68v1.33l230.63,0c1.75-.3,14.56-2.65,21.43-8.53A2.78,2.78,0,0,1,346.39,90.32Z"/><path class="cls-1" d="M58.38,93.17a83,83,0,0,1-13.69-1,35.12,35.12,0,0,1-11.17-3.67A19.22,19.22,0,0,1,26,81.08a23.53,23.53,0,0,1-2.74-11.89v-.57a3.17,3.17,0,0,1,.11-.77c8.62.38,12.94.56,21.57.91a2.92,2.92,0,0,0-.1.75v.64a6.78,6.78,0,0,0,1.45,4.63A7.57,7.57,0,0,0,50.35,77a29.88,29.88,0,0,0,5.94.7c.83,0,1.7,0,2.63,0a16.74,16.74,0,0,0,2.69-.22A10.55,10.55,0,0,0,64,76.86a4,4,0,0,0,1.7-1.26,3.18,3.18,0,0,0,.62-2,3.39,3.39,0,0,0-1.76-3,19.14,19.14,0,0,0-4.76-2q-3-.9-6.71-1.75c-2.47-.56-5.06-1.22-7.74-2A54.06,54.06,0,0,1,37.59,62a28.23,28.23,0,0,1-6.71-4.29,18.63,18.63,0,0,1-4.75-6.35,21.11,21.11,0,0,1-1.75-8.95A18.87,18.87,0,0,1,27,32.17,16.62,16.62,0,0,1,34,26,29.88,29.88,0,0,1,44.2,23.36a58.44,58.44,0,0,1,12,.21,62.14,62.14,0,0,1,12,2.56,39.88,39.88,0,0,1,10,4.71A22.87,22.87,0,0,1,85,37.67a17.42,17.42,0,0,1,2.61,9v1.12c-8.54-.62-12.82-.94-21.36-1.59v-.39a6.62,6.62,0,0,0-.93-3.34,7.68,7.68,0,0,0-3-2.76,13,13,0,0,0-5.31-1.45,19.45,19.45,0,0,0-5.21.11,6.37,6.37,0,0,0-3.14,1.35,2.86,2.86,0,0,0-1,2.14,3.93,3.93,0,0,0,1.76,3.21,16.8,16.8,0,0,0,4.75,2.34q3,1,6.71,2t7.74,2a60.77,60.77,0,0,1,7.74,2.65,31,31,0,0,1,6.72,3.83,17.42,17.42,0,0,1,4.76,5.42A15.35,15.35,0,0,1,89.63,71c0,5.24-1.33,9.46-4,12.71a23.6,23.6,0,0,1-11.14,7.19A52,52,0,0,1,58.38,93.17Z"/><path class="cls-1" d="M101.06,92.08q-.11-31.29-.22-62.58c9.12.9,13.69,1.34,22.81,2.18,0,8.82,0,13.23.09,22,10,.59,15.06.87,25.1,1.41l-.1-21.25c9.13.76,13.69,1.13,22.83,1.83q.13,28.23.28,56.46l-22.84,0-.1-22.1c-10-.33-15.06-.5-25.1-.86,0,9.17,0,13.75.09,22.93Z"/><path class="cls-1" d="M187.15,92.2q-.15-27.66-.29-55.34c9.14.66,13.7,1,22.84,1.56.05,9.2.08,13.8.13,23Q222.34,50.58,235,40q14.16.81,28.34,1.48-12.8,10-25.44,20.12,12.9,15.54,26.2,30.72l-27,0c-6.08-7.81-9.12-11.77-15.19-19.84-4.82,3.37-7.23,5.08-12,8.55,0,4.5,0,6.76.06,11.26Z"/><path class="cls-1" d="M306.39,93.17c-8.06,0-17-1-22.69-2.91s-10.11-4.89-13.16-8.83a23.21,23.21,0,0,1-4.62-14.56c0-5.81,1.46-10.62,4.48-14.39s7.38-6.49,13.1-8.19,12.61-2.39,20.68-2.1A69.91,69.91,0,0,1,325,45.7q8.6,3.06,13.17,8.68a21.33,21.33,0,0,1,4.59,13.88A20.84,20.84,0,0,1,338.25,82q-4.53,5.55-13.1,8.36A54.09,54.09,0,0,1,306.39,93.17Zm-2.05-11.81a23.68,23.68,0,0,0,6.56-.77,13.81,13.81,0,0,0,4.75-2.27,9.17,9.17,0,0,0,2.83-3.56,10.84,10.84,0,0,0,.91-4.56c0-1.81,0-2.72,0-4.53a11.22,11.22,0,0,0-.95-4.59,9.57,9.57,0,0,0-2.86-3.65A14.66,14.66,0,0,0,310.8,55a24.52,24.52,0,0,0-6.57-1,24.09,24.09,0,0,0-6.57.64A12.77,12.77,0,0,0,293,56.85a9.14,9.14,0,0,0-2.78,3.58,11.42,11.42,0,0,0-.91,4.65c0,1.85,0,2.78,0,4.63a11.65,11.65,0,0,0,.95,4.68,9.73,9.73,0,0,0,2.81,3.69,13.21,13.21,0,0,0,4.71,2.39A23.57,23.57,0,0,0,304.34,81.36Z"/><path class="cls-1" d="M388.48,93.17A67.7,67.7,0,0,1,367.8,90.4q-8.58-2.78-13.14-8.33a20.9,20.9,0,0,1-4.59-13.71q0-8.22,4.52-13.66t13.13-8.06c5.72-1.77,12.63-2.6,20.7-2.53A70.66,70.66,0,0,1,409.24,47q8.6,2.76,13.15,8.18a20.27,20.27,0,0,1,4.54,13.53,20.43,20.43,0,0,1-4.55,13.52q-4.54,5.47-13.13,8.22A68.68,68.68,0,0,1,388.48,93.17Zm0-11.37A24.17,24.17,0,0,0,395,81a14,14,0,0,0,4.75-2.23,9,9,0,0,0,2.85-3.47,10.34,10.34,0,0,0,.92-4.43v-4.4a10.51,10.51,0,0,0-.93-4.44,9.07,9.07,0,0,0-2.85-3.49A14.41,14.41,0,0,0,395,56.31a24.86,24.86,0,0,0-6.57-.83,24.13,24.13,0,0,0-6.57.75,13.2,13.2,0,0,0-4.71,2.2,9.07,9.07,0,0,0-2.79,3.47,10.37,10.37,0,0,0-.92,4.45v4.42a10.76,10.76,0,0,0,.94,4.46,9.29,9.29,0,0,0,2.8,3.51A13.41,13.41,0,0,0,381.9,81,24,24,0,0,0,388.46,81.8Z"/><path class="cls-1" d="M439.22,92.34q0-23.68,0-47.39,23.72-.18,47.42-.72a30.14,30.14,0,0,1,9.83,1.28,17.62,17.62,0,0,1,7.13,4,8.25,8.25,0,0,1,2.67,6.15,9.73,9.73,0,0,1-1.68,5.82,11.9,11.9,0,0,1-4.35,3.63,24.36,24.36,0,0,1-5.91,2v.28a25.39,25.39,0,0,1,6.77,1.84,12.08,12.08,0,0,1,4.9,3.78,10.13,10.13,0,0,1,1.84,6.34,9.55,9.55,0,0,1-2.81,6.8,18.7,18.7,0,0,1-7.46,4.53,31.6,31.6,0,0,1-10.44,1.62Zm22.9-29.09c6.29,0,9.43-.09,15.72-.16a6.8,6.8,0,0,0,2.8-.56A4.44,4.44,0,0,0,482.45,61a4.21,4.21,0,0,0,.68-2.45A3.07,3.07,0,0,0,481.59,56a6.21,6.21,0,0,0-3.73-1c-6.29.1-9.44.14-15.73.21C462.13,58.39,462.12,60,462.12,63.25Zm0,18,17.37-.08a6.08,6.08,0,0,0,3.83-1.13,4,4,0,0,0,1.46-3.36,3.05,3.05,0,0,0-.67-1.92,4.26,4.26,0,0,0-1.86-1.34,7.06,7.06,0,0,0-2.74-.47l-17.37.13C462.09,76.36,462.09,78,462.08,81.26Z"/><path class="cls-1" d="M538.85,92.3c0-7.71,0-11.57.09-19.28Q525,58.19,510.81,43.6c10.52-.32,15.77-.5,26.29-.91,5.44,6.4,8.15,9.62,13.58,16.14h.42c5.49-6.84,8.24-10.3,13.73-17.31,10-.48,15-.73,24.93-1.28q-13.82,16.35-28,32.4l-.1,19.66Z"/><path class="cls-1" d="M615.41,92.24q.14-26.65.28-53.3c9.14-.56,13.71-.86,22.85-1.5q-.15,27.39-.29,54.77Z"/><path class="cls-1" d="M653.54,92.2q.13-27.93.29-55.85c7.77-.58,11.65-.88,19.42-1.5q11.16,9.49,22,19.38c.62.53,1.45,1.32,2.47,2.36l3.14,3.17a35,35,0,0,1,2.41,2.62l.52-.2c-.06-1.62-.09-3.23-.08-4.83s0-2.8,0-3.61l.1-21.5c8.3-.75,12.45-1.13,20.74-1.93q-.12,30.88-.23,61.78l-19.32,0q-12.28-11.7-24.8-23.1c-1.17-1.08-2.16-2.07-3-3l-2.36-2.54-.52.19c.06,1.05.09,2.11.09,3.17s0,1.83,0,2.33c0,9.18-.06,13.78-.11,23Z"/><path class="cls-1" d="M771.07,93.17A53.28,53.28,0,0,1,752,90.1a25.73,25.73,0,0,1-12.11-8.92c-2.82-3.93-4.21-8.76-4.19-14.59l.12-37.8c9.12-.92,13.68-1.4,22.79-2.39l-.09,38.92a12.11,12.11,0,0,0,3.08,8.58c2.06,2.24,5.19,3.32,9.39,3.2s7.35-1.37,9.45-3.81a13.57,13.57,0,0,0,3.16-9.15q0-20.3,0-40.57c9.11-1.07,13.66-1.61,22.76-2.74V63.3c0,6.55-1.39,12.11-4.18,16.58a25.26,25.26,0,0,1-12.1,10C784.87,92.11,778.51,93.17,771.07,93.17Z"/></g></g></svg>