<svg xmlns="http://www.w3.org/2000/svg" viewBox="0 0 36.03 36.98"><defs><style>.cls-1{fill:#986600;}.cls-2{fill:#e9d781;}.cls-3{fill:#ba7c00;}.cls-4{fill:#d09700;}.cls-5{fill:#d7ac00;}.cls-6{fill:#e3ca4c;}.cls-7{fill:#3e3614;}.cls-8{fill:#fff;}</style></defs><g id="Layer_2" data-name="Layer 2"><g id="Desktop_-_Dashboard" data-name="Desktop - Dashboard"><polygon class="cls-1" points="32.03 28.97 30.7 28.97 30.7 30.31 30.7 31.64 32.03 31.64 33.36 31.64 33.36 30.31 34.7 30.31 34.7 28.97 34.7 27.64 33.36 27.64 33.36 28.97 32.03 28.97"/><polygon class="cls-2" points="1.33 30.31 2.67 30.31 2.67 31.64 4 31.64 4 30.31 4 28.97 2.67 28.97 2.67 27.64 1.33 27.64 1.33 28.97 1.33 30.31"/><polygon class="cls-2" points="6.68 32.98 8.01 32.98 8.01 34.31 9.35 34.31 9.35 32.98 9.35 31.64 8.01 31.64 8.01 30.31 6.68 30.31 6.68 31.64 6.68 32.98"/><polygon class="cls-2" points="16.02 35.64 17.35 35.64 18.69 35.64 20.02 35.64 20.02 34.31 20.02 32.98 18.69 32.98 17.35 32.98 16.02 32.98 16.02 34.31 16.02 35.64"/><polygon class="cls-3" points="13.35 20.97 14.68 20.97 16.02 20.97 17.35 20.97 18.69 20.97 20.02 20.97 21.35 20.97 22.68 20.97 24.02 20.97 24.02 19.63 22.68 19.63 21.35 19.63 20.02 19.63 18.69 19.63 17.35 19.63 16.02 19.63 14.68 19.63 13.35 19.63 12.01 19.63 12.01 20.97 13.35 20.97"/><polygon class="cls-3" points="25.36 22.3 26.69 22.3 26.69 20.97 25.36 20.97 24.02 20.97 24.02 22.3 25.36 22.3"/><polygon class="cls-3" points="12.01 22.3 12.01 20.97 10.68 20.97 9.35 20.97 9.35 22.3 10.68 22.3 12.01 22.3"/><rect class="cls-3" x="26.69" y="22.3" width="1.34" height="1.33"/><rect class="cls-3" x="8.01" y="22.3" width="1.34" height="1.33"/><rect class="cls-3" x="28.03" y="23.63" width="1.34" height="1.34"/><rect class="cls-3" x="6.68" y="23.63" width="1.34" height="1.34"/><rect class="cls-3" x="26.69" y="24.97" width="1.34" height="1.34"/><rect class="cls-3" x="8.01" y="24.97" width="1.34" height="1.34"/><polygon class="cls-3" points="24.02 26.3 24.02 27.64 25.36 27.64 26.69 27.64 26.69 26.3 25.36 26.3 24.02 26.3"/><polygon class="cls-3" points="10.68 26.3 9.35 26.3 9.35 27.64 10.68 27.64 12.01 27.64 12.01 26.3 10.68 26.3"/><polygon class="cls-3" points="21.35 27.64 20.02 27.64 18.69 27.64 17.35 27.64 16.02 27.64 14.68 27.64 13.35 27.64 12.01 27.64 12.01 28.97 13.35 28.97 14.68 28.97 16.02 28.97 17.35 28.97 18.69 28.97 20.02 28.97 21.35 28.97 22.68 28.97 24.02 28.97 24.02 27.64 22.68 27.64 21.35 27.64"/><polygon class="cls-3" points="26.69 31.64 25.36 31.64 25.36 32.98 25.36 34.31 26.69 34.31 28.03 34.31 28.03 32.98 29.36 32.98 30.7 32.98 30.7 31.64 30.7 30.31 29.36 30.31 28.03 30.31 28.03 31.64 26.69 31.64"/><polygon class="cls-4" points="12.01 18.3 13.35 18.3 14.68 18.3 16.02 18.3 17.35 18.3 18.69 18.3 20.02 18.3 21.35 18.3 22.68 18.3 24.02 18.3 25.36 18.3 25.36 16.96 24.02 16.96 22.68 16.96 21.35 16.96 20.02 16.96 18.69 16.96 17.35 16.96 16.02 16.96 14.68 16.96 13.35 16.96 12.01 16.96 10.68 16.96 10.68 18.3 12.01 18.3"/><polygon class="cls-4" points="26.69 19.63 28.03 19.63 28.03 18.3 26.69 18.3 25.36 18.3 25.36 19.63 26.69 19.63"/><polygon class="cls-4" points="8.01 18.3 8.01 19.63 9.35 19.63 10.68 19.63 10.68 18.3 9.35 18.3 8.01 18.3"/><polygon class="cls-4" points="29.36 20.97 30.7 20.97 30.7 19.63 29.36 19.63 28.03 19.63 28.03 20.97 29.36 20.97"/><polygon class="cls-4" points="5.34 19.63 5.34 20.97 6.68 20.97 8.01 20.97 8.01 19.63 6.68 19.63 5.34 19.63"/><polygon class="cls-4" points="32.03 22.3 33.36 22.3 33.36 20.97 32.03 20.97 30.7 20.97 30.7 22.3 32.03 22.3"/><polygon class="cls-4" points="12.01 23.63 12.01 22.3 10.68 22.3 9.35 22.3 9.35 23.63 10.68 23.63 12.01 23.63"/><polygon class="cls-4" points="33.36 24.97 33.36 26.3 34.7 26.3 34.7 24.97 34.7 23.63 34.7 22.3 33.36 22.3 33.36 23.63 33.36 24.97"/><rect class="cls-4" x="8.01" y="23.63" width="1.34" height="1.34"/><polygon class="cls-4" points="26.69 26.3 26.69 24.97 25.36 24.97 24.02 24.97 24.02 26.3 25.36 26.3 26.69 26.3"/><polygon class="cls-4" points="10.68 24.97 9.35 24.97 9.35 26.3 10.68 26.3 12.01 26.3 12.01 24.97 10.68 24.97"/><polygon class="cls-4" points="22.68 26.3 21.35 26.3 20.02 26.3 18.69 26.3 17.35 26.3 16.02 26.3 14.68 26.3 13.35 26.3 12.01 26.3 12.01 27.64 13.35 27.64 14.68 27.64 16.02 27.64 17.35 27.64 18.69 27.64 20.02 27.64 21.35 27.64 22.68 27.64 24.02 27.64 24.02 26.3 22.68 26.3"/><rect class="cls-5" x="24.02" y="18.3" width="1.34" height="1.34"/><polygon class="cls-5" points="12.01 19.63 13.35 19.63 14.68 19.63 16.02 19.63 17.35 19.63 18.69 19.63 20.02 19.63 21.35 19.63 22.68 19.63 22.68 18.3 21.35 18.3 20.02 18.3 18.69 18.3 17.35 18.3 16.02 18.3 14.68 18.3 13.35 18.3 12.01 18.3 10.68 18.3 10.68 19.63 12.01 19.63"/><polygon class="cls-5" points="26.69 20.97 28.03 20.97 28.03 19.63 26.69 19.63 25.36 19.63 25.36 20.97 26.69 20.97"/><polygon class="cls-5" points="8.01 19.63 8.01 20.97 6.68 20.97 5.34 20.97 4 20.97 4 22.3 5.34 22.3 5.34 23.63 6.68 23.63 8.01 23.63 8.01 22.3 9.35 22.3 9.35 20.97 10.68 20.97 10.68 19.63 9.35 19.63 8.01 19.63"/><polygon class="cls-5" points="29.36 22.3 29.36 23.63 30.7 23.63 32.03 23.63 32.03 24.97 33.36 24.97 33.36 23.63 33.36 22.3 32.03 22.3 30.7 22.3 30.7 20.97 29.36 20.97 28.03 20.97 28.03 22.3 29.36 22.3"/><polygon class="cls-5" points="4 22.3 2.67 22.3 2.67 23.63 2.67 24.97 2.67 26.3 4 26.3 5.34 26.3 5.34 27.64 6.68 27.64 8.01 27.64 8.01 26.3 6.68 26.3 6.68 24.97 5.34 24.97 5.34 23.63 4 23.63 4 22.3"/><polygon class="cls-5" points="29.36 24.97 28.03 24.97 28.03 26.3 26.69 26.3 26.69 27.64 25.36 27.64 24.02 27.64 24.02 28.97 22.68 28.97 22.68 30.31 24.02 30.31 25.36 30.31 25.36 28.97 26.69 28.97 28.03 28.97 28.03 27.64 29.36 27.64 30.7 27.64 30.7 26.3 32.03 26.3 32.03 24.97 30.7 24.97 29.36 24.97"/><polygon class="cls-5" points="18.69 26.3 20.02 26.3 21.35 26.3 22.68 26.3 24.02 26.3 24.02 24.97 25.36 24.97 26.69 24.97 26.69 23.63 25.36 23.63 24.02 23.63 24.02 22.3 22.68 22.3 21.35 22.3 20.02 22.3 18.69 22.3 17.35 22.3 16.02 22.3 14.68 22.3 14.68 23.63 16.02 23.63 17.35 23.63 17.35 24.97 18.69 24.97 18.69 26.3"/><polygon class="cls-5" points="14.68 24.97 14.68 23.63 13.35 23.63 13.35 22.3 12.01 22.3 12.01 23.63 10.68 23.63 9.35 23.63 9.35 24.97 10.68 24.97 12.01 24.97 12.01 26.3 13.35 26.3 14.68 26.3 16.02 26.3 17.35 26.3 17.35 24.97 16.02 24.97 14.68 24.97"/><rect class="cls-5" x="8.01" y="27.64" width="1.34" height="1.34"/><polygon class="cls-5" points="18.69 28.97 17.35 28.97 16.02 28.97 14.68 28.97 13.35 28.97 13.35 30.31 14.68 30.31 16.02 30.31 17.35 30.31 18.69 30.31 20.02 30.31 20.02 28.97 18.69 28.97"/><polygon class="cls-5" points="10.68 30.31 12.01 30.31 12.01 28.97 10.68 28.97 9.35 28.97 9.35 30.31 10.68 30.31"/><polygon class="cls-5" points="20.02 35.64 21.35 35.64 22.68 35.64 24.02 35.64 25.36 35.64 25.36 34.31 25.36 32.98 24.02 32.98 22.68 32.98 21.35 32.98 20.02 32.98 20.02 34.31 20.02 35.64"/><rect class="cls-6" x="22.69" y="18.3" width="1.34" height="1.34"/><rect class="cls-6" x="24.02" y="19.63" width="1.34" height="1.34"/><rect class="cls-6" x="10.68" y="19.63" width="1.34" height="1.34"/><rect class="cls-6" x="26.69" y="20.97" width="1.34" height="1.34"/><polygon class="cls-6" points="21.35 20.97 20.02 20.97 18.69 20.97 17.35 20.97 16.02 20.97 14.68 20.97 13.35 20.97 12.01 20.97 12.01 22.3 13.35 22.3 13.35 23.63 14.68 23.63 14.68 22.3 16.02 22.3 17.35 22.3 18.69 22.3 20.02 22.3 21.35 22.3 22.68 22.3 24.02 22.3 24.02 20.97 22.68 20.97 21.35 20.97"/><rect class="cls-6" x="2.67" y="20.97" width="1.34" height="1.34"/><rect class="cls-6" x="28.03" y="22.3" width="1.34" height="1.33"/><polygon class="cls-6" points="25.36 23.63 26.69 23.63 26.69 22.3 25.36 22.3 24.02 22.3 24.02 23.63 25.36 23.63"/><rect class="cls-6" x="4.01" y="22.3" width="1.34" height="1.33"/><polygon class="cls-6" points="30.7 24.97 32.03 24.97 32.03 23.63 30.7 23.63 29.36 23.63 29.36 24.97 30.7 24.97"/><rect class="cls-6" x="26.69" y="23.63" width="1.34" height="1.34"/><polygon class="cls-6" points="16.02 24.97 17.35 24.97 17.35 23.63 16.02 23.63 14.68 23.63 14.68 24.97 16.02 24.97"/><rect class="cls-6" x="5.34" y="23.63" width="1.34" height="1.34"/><polygon class="cls-6" points="2.67 23.63 2.67 22.3 1.33 22.3 1.33 23.63 1.33 24.97 1.33 26.3 2.67 26.3 2.67 24.97 2.67 23.63"/><rect class="cls-6" x="17.35" y="24.97" width="1.34" height="1.34"/><rect class="cls-6" x="6.68" y="24.97" width="1.34" height="1.34"/><polygon class="cls-6" points="30.7 26.3 30.7 27.64 32.03 27.64 33.36 27.64 33.36 26.3 33.36 24.97 32.03 24.97 32.03 26.3 30.7 26.3"/><rect class="cls-6" x="8.01" y="26.3" width="1.34" height="1.34"/><polygon class="cls-6" points="4 26.3 2.67 26.3 2.67 27.64 4 27.64 5.34 27.64 5.34 26.3 4 26.3"/><polygon class="cls-6" points="28.03 27.64 28.03 28.97 29.36 28.97 30.7 28.97 30.7 27.64 29.36 27.64 28.03 27.64"/><polygon class="cls-6" points="10.68 27.64 9.35 27.64 9.35 28.97 10.68 28.97 12.01 28.97 12.01 27.64 10.68 27.64"/><polygon class="cls-6" points="6.68 27.64 5.34 27.64 5.34 28.97 6.68 28.97 8.01 28.97 8.01 27.64 6.68 27.64"/><polygon class="cls-6" points="25.36 28.97 25.36 30.31 26.69 30.31 28.03 30.31 28.03 28.97 26.69 28.97 25.36 28.97"/><rect class="cls-6" x="8.01" y="28.97" width="1.34" height="1.34"/><polygon class="cls-6" points="4 30.31 4 31.64 5.34 31.64 5.34 32.98 6.68 32.98 6.68 31.64 6.68 30.31 5.34 30.31 5.34 28.97 4 28.97 4 30.31"/><polygon class="cls-6" points="22.68 30.31 22.68 28.97 21.35 28.97 20.02 28.97 20.02 30.31 18.69 30.31 17.35 30.31 16.02 30.31 14.68 30.31 13.35 30.31 13.35 28.97 12.01 28.97 12.01 30.31 10.68 30.31 10.68 31.64 12.01 31.64 13.35 31.64 14.68 31.64 16.02 31.64 17.35 31.64 18.69 31.64 20.02 31.64 21.35 31.64 22.68 31.64 24.02 31.64 25.36 31.64 25.36 30.31 24.02 30.31 22.68 30.31"/><polygon class="cls-6" points="9.35 32.98 9.35 34.31 10.68 34.31 10.68 35.64 12.01 35.64 13.35 35.64 14.68 35.64 16.02 35.64 16.02 34.31 16.02 32.98 14.68 32.98 13.35 32.98 12.01 32.98 10.68 32.98 10.68 31.64 9.35 31.64 9.35 32.98"/><polygon class="cls-7" points="12.01 16.96 13.35 16.96 14.68 16.96 16.02 16.96 17.35 16.96 18.69 16.96 20.02 16.96 21.35 16.96 22.68 16.96 24.02 16.96 25.36 16.96 25.36 15.63 24.02 15.63 22.68 15.63 21.35 15.63 20.02 15.63 18.69 15.63 17.35 15.63 16.02 15.63 14.68 15.63 13.35 15.63 12.01 15.63 10.68 15.63 10.68 16.96 12.01 16.96"/><polygon class="cls-7" points="26.69 18.3 28.03 18.3 28.03 16.96 26.69 16.96 25.36 16.96 25.36 18.3 26.69 18.3"/><polygon class="cls-7" points="10.68 18.3 10.68 16.96 9.35 16.96 8.01 16.96 8.01 18.3 9.35 18.3 10.68 18.3"/><polygon class="cls-7" points="29.36 19.63 30.7 19.63 30.7 18.3 29.36 18.3 28.03 18.3 28.03 19.63 29.36 19.63"/><polygon class="cls-7" points="8.01 19.63 8.01 18.3 6.68 18.3 5.34 18.3 5.34 19.63 6.68 19.63 8.01 19.63"/><polygon class="cls-7" points="32.03 20.97 33.36 20.97 33.36 19.63 32.03 19.63 30.7 19.63 30.7 20.97 32.03 20.97"/><polygon class="cls-7" points="5.34 20.97 5.34 19.63 4 19.63 2.67 19.63 2.67 20.97 4 20.97 5.34 20.97"/><rect class="cls-7" x="33.36" y="20.97" width="1.34" height="1.34"/><rect class="cls-7" x="1.34" y="20.97" width="1.34" height="1.34"/><polygon class="cls-7" points="34.7 24.97 34.7 26.3 33.36 26.3 33.36 27.64 34.7 27.64 34.7 28.97 34.7 30.31 36.03 30.31 36.03 28.97 36.03 27.64 36.03 26.3 36.03 24.97 36.03 23.63 36.03 22.3 34.7 22.3 34.7 23.63 34.7 24.97"/><polygon class="cls-7" points="33.36 28.97 33.36 27.64 32.03 27.64 30.7 27.64 30.7 28.97 32.03 28.97 33.36 28.97"/><polygon class="cls-7" points="4 28.97 5.34 28.97 5.34 27.64 4 27.64 2.67 27.64 2.67 28.97 4 28.97"/><polygon class="cls-7" points="1.33 27.64 2.67 27.64 2.67 26.3 1.33 26.3 1.33 24.97 1.33 23.63 1.33 22.3 0 22.3 0 23.63 0 24.97 0 26.3 0 27.64 0 28.97 0 30.31 1.33 30.31 1.33 28.97 1.33 27.64"/><polygon class="cls-7" points="30.7 30.31 30.7 28.97 29.36 28.97 28.03 28.97 28.03 30.31 29.36 30.31 30.7 30.31"/><polygon class="cls-7" points="6.68 30.31 8.01 30.31 8.01 28.97 6.68 28.97 5.34 28.97 5.34 30.31 6.68 30.31"/><rect class="cls-7" x="33.36" y="30.31" width="1.34" height="1.34"/><polygon class="cls-7" points="28.03 31.64 28.03 30.31 26.69 30.31 25.36 30.31 25.36 31.64 26.69 31.64 28.03 31.64"/><polygon class="cls-7" points="9.35 31.64 10.68 31.64 10.68 30.31 9.35 30.31 8.01 30.31 8.01 31.64 9.35 31.64"/><rect class="cls-7" x="0.71" y="30.31" width="1.96" height="1.34"/><polygon class="cls-7" points="30.7 31.64 30.7 32.98 32.03 32.98 33.36 32.98 33.36 31.64 32.03 31.64 30.7 31.64"/><polygon class="cls-7" points="12.01 32.98 13.35 32.98 14.68 32.98 16.02 32.98 17.35 32.98 18.69 32.98 20.02 32.98 21.35 32.98 22.68 32.98 24.02 32.98 25.36 32.98 25.36 31.64 24.02 31.64 22.68 31.64 21.35 31.64 20.02 31.64 18.69 31.64 17.35 31.64 16.02 31.64 14.68 31.64 13.35 31.64 12.01 31.64 10.68 31.64 10.68 32.98 12.01 32.98"/><polygon class="cls-7" points="4 31.64 2.67 31.64 2.67 32.98 4 32.98 5.34 32.98 5.34 31.64 4 31.64"/><polygon class="cls-7" points="28.03 32.98 28.03 34.31 29.36 34.31 30.7 34.31 30.7 32.98 29.36 32.98 28.03 32.98"/><polygon class="cls-7" points="6.68 32.98 5.34 32.98 5.34 34.31 6.68 34.31 8.01 34.31 8.01 32.98 6.68 32.98"/><polygon class="cls-7" points="25.36 34.31 25.36 35.64 26.69 35.64 28.03 35.64 28.03 34.31 26.69 34.31 25.36 34.31"/><polygon class="cls-7" points="9.35 34.31 8.01 34.31 8.01 35.64 9.35 35.64 10.68 35.64 10.68 34.31 9.35 34.31"/><polygon class="cls-7" points="22.68 35.64 21.35 35.64 20.02 35.64 18.69 35.64 17.35 35.64 16.02 35.64 14.68 35.64 13.35 35.64 12.01 35.64 10.68 35.64 10.68 36.98 12.01 36.98 13.35 36.98 14.68 36.98 16.02 36.98 17.35 36.98 18.69 36.98 20.02 36.98 21.35 36.98 22.68 36.98 24.02 36.98 25.36 36.98 25.36 35.64 24.02 35.64 22.68 35.64"/><polygon class="cls-1" points="32.03 21.16 30.7 21.16 30.7 22.5 30.7 23.83 32.03 23.83 33.36 23.83 33.36 22.5 34.7 22.5 34.7 21.16 34.7 19.83 33.36 19.83 33.36 21.16 32.03 21.16"/><polygon class="cls-2" points="1.33 22.5 2.67 22.5 2.67 23.83 4 23.83 4 22.5 4 21.16 2.67 21.16 2.67 19.83 1.33 19.83 1.33 21.16 1.33 22.5"/><polygon class="cls-2" points="6.68 25.17 8.01 25.17 8.01 26.5 9.35 26.5 9.35 25.17 9.35 23.83 8.01 23.83 8.01 22.5 6.68 22.5 6.68 23.83 6.68 25.17"/><polygon class="cls-2" points="16.02 27.83 17.35 27.83 18.69 27.83 20.02 27.83 20.02 26.5 20.02 25.17 18.69 25.17 17.35 25.17 16.02 25.17 16.02 26.5 16.02 27.83"/><polygon class="cls-3" points="13.35 13.16 14.68 13.16 16.02 13.16 17.35 13.16 18.69 13.16 20.02 13.16 21.35 13.16 22.68 13.16 24.02 13.16 24.02 11.82 22.68 11.82 21.35 11.82 20.02 11.82 18.69 11.82 17.35 11.82 16.02 11.82 14.68 11.82 13.35 11.82 12.01 11.82 12.01 13.16 13.35 13.16"/><polygon class="cls-3" points="25.36 14.49 26.69 14.49 26.69 13.16 25.36 13.16 24.02 13.16 24.02 14.49 25.36 14.49"/><polygon class="cls-3" points="12.01 14.49 12.01 13.16 10.68 13.16 9.35 13.16 9.35 14.49 10.68 14.49 12.01 14.49"/><rect class="cls-3" x="26.69" y="14.49" width="1.34" height="1.33"/><rect class="cls-3" x="8.01" y="14.49" width="1.34" height="1.33"/><rect class="cls-3" x="28.03" y="15.82" width="1.34" height="1.34"/><rect class="cls-3" x="6.68" y="15.82" width="1.34" height="1.34"/><rect class="cls-3" x="26.69" y="17.16" width="1.34" height="1.34"/><rect class="cls-3" x="8.01" y="17.16" width="1.34" height="1.34"/><polygon class="cls-3" points="24.02 18.49 24.02 19.83 25.36 19.83 26.69 19.83 26.69 18.49 25.36 18.49 24.02 18.49"/><polygon class="cls-3" points="10.68 18.49 9.35 18.49 9.35 19.83 10.68 19.83 12.01 19.83 12.01 18.49 10.68 18.49"/><polygon class="cls-3" points="21.35 19.83 20.02 19.83 18.69 19.83 17.35 19.83 16.02 19.83 14.68 19.83 13.35 19.83 12.01 19.83 12.01 21.16 13.35 21.16 14.68 21.16 16.02 21.16 17.35 21.16 18.69 21.16 20.02 21.16 21.35 21.16 22.68 21.16 24.02 21.16 24.02 19.83 22.68 19.83 21.35 19.83"/><polygon class="cls-3" points="26.69 23.83 25.36 23.83 25.36 25.17 25.36 26.5 26.69 26.5 28.03 26.5 28.03 25.17 29.36 25.17 30.7 25.17 30.7 23.83 30.7 22.5 29.36 22.5 28.03 22.5 28.03 23.83 26.69 23.83"/><polygon class="cls-4" points="12.01 10.49 13.35 10.49 14.68 10.49 16.02 10.49 17.35 10.49 18.69 10.49 20.02 10.49 21.35 10.49 22.68 10.49 24.02 10.49 25.36 10.49 25.36 9.15 24.02 9.15 22.68 9.15 21.35 9.15 20.02 9.15 18.69 9.15 17.35 9.15 16.02 9.15 14.68 9.15 13.35 9.15 12.01 9.15 10.68 9.15 10.68 10.49 12.01 10.49"/><polygon class="cls-4" points="26.69 11.82 28.03 11.82 28.03 10.49 26.69 10.49 25.36 10.49 25.36 11.82 26.69 11.82"/><polygon class="cls-4" points="8.01 10.49 8.01 11.82 9.35 11.82 10.68 11.82 10.68 10.49 9.35 10.49 8.01 10.49"/><polygon class="cls-4" points="29.36 13.16 30.7 13.16 30.7 11.82 29.36 11.82 28.03 11.82 28.03 13.16 29.36 13.16"/><polygon class="cls-4" points="5.34 11.82 5.34 13.16 6.68 13.16 8.01 13.16 8.01 11.82 6.68 11.82 5.34 11.82"/><polygon class="cls-4" points="32.03 14.49 33.36 14.49 33.36 13.16 32.03 13.16 30.7 13.16 30.7 14.49 32.03 14.49"/><polygon class="cls-4" points="12.01 15.82 12.01 14.49 10.68 14.49 9.35 14.49 9.35 15.82 10.68 15.82 12.01 15.82"/><polygon class="cls-4" points="33.36 17.16 33.36 18.49 34.7 18.49 34.7 17.16 34.7 15.82 34.7 14.49 33.36 14.49 33.36 15.82 33.36 17.16"/><rect class="cls-4" x="8.01" y="15.82" width="1.34" height="1.34"/><polygon class="cls-4" points="26.69 18.49 26.69 17.16 25.36 17.16 24.02 17.16 24.02 18.49 25.36 18.49 26.69 18.49"/><polygon class="cls-4" points="10.68 17.16 9.35 17.16 9.35 18.49 10.68 18.49 12.01 18.49 12.01 17.16 10.68 17.16"/><polygon class="cls-4" points="22.68 18.49 21.35 18.49 20.02 18.49 18.69 18.49 17.35 18.49 16.02 18.49 14.68 18.49 13.35 18.49 12.01 18.49 12.01 19.83 13.35 19.83 14.68 19.83 16.02 19.83 17.35 19.83 18.69 19.83 20.02 19.83 21.35 19.83 22.68 19.83 24.02 19.83 24.02 18.49 22.68 18.49"/><rect class="cls-5" x="24.02" y="10.49" width="1.34" height="1.34"/><polygon class="cls-5" points="12.01 11.82 13.35 11.82 14.68 11.82 16.02 11.82 17.35 11.82 18.69 11.82 20.02 11.82 21.35 11.82 22.68 11.82 22.68 10.49 21.35 10.49 20.02 10.49 18.69 10.49 17.35 10.49 16.02 10.49 14.68 10.49 13.35 10.49 12.01 10.49 10.68 10.49 10.68 11.82 12.01 11.82"/><polygon class="cls-5" points="26.69 13.16 28.03 13.16 28.03 11.82 26.69 11.82 25.36 11.82 25.36 13.16 26.69 13.16"/><polygon class="cls-5" points="8.01 11.82 8.01 13.16 6.68 13.16 5.34 13.16 4 13.16 4 14.49 5.34 14.49 5.34 15.82 6.68 15.82 8.01 15.82 8.01 14.49 9.35 14.49 9.35 13.16 10.68 13.16 10.68 11.82 9.35 11.82 8.01 11.82"/><polygon class="cls-5" points="29.36 14.49 29.36 15.82 30.7 15.82 32.03 15.82 32.03 17.16 33.36 17.16 33.36 15.82 33.36 14.49 32.03 14.49 30.7 14.49 30.7 13.16 29.36 13.16 28.03 13.16 28.03 14.49 29.36 14.49"/><polygon class="cls-5" points="4 14.49 2.67 14.49 2.67 15.82 2.67 17.16 2.67 18.49 4 18.49 5.34 18.49 5.34 19.83 6.68 19.83 8.01 19.83 8.01 18.49 6.68 18.49 6.68 17.16 5.34 17.16 5.34 15.82 4 15.82 4 14.49"/><polygon class="cls-5" points="29.36 17.16 28.03 17.16 28.03 18.49 26.69 18.49 26.69 19.83 25.36 19.83 24.02 19.83 24.02 21.16 22.68 21.16 22.68 22.5 24.02 22.5 25.36 22.5 25.36 21.16 26.69 21.16 28.03 21.16 28.03 19.83 29.36 19.83 30.7 19.83 30.7 18.49 32.03 18.49 32.03 17.16 30.7 17.16 29.36 17.16"/><polygon class="cls-5" points="18.69 18.49 20.02 18.49 21.35 18.49 22.68 18.49 24.02 18.49 24.02 17.16 25.36 17.16 26.69 17.16 26.69 15.82 25.36 15.82 24.02 15.82 24.02 14.49 22.68 14.49 21.35 14.49 20.02 14.49 18.69 14.49 17.35 14.49 16.02 14.49 14.68 14.49 14.68 15.82 16.02 15.82 17.35 15.82 17.35 17.16 18.69 17.16 18.69 18.49"/><polygon class="cls-5" points="14.68 17.16 14.68 15.82 13.35 15.82 13.35 14.49 12.01 14.49 12.01 15.82 10.68 15.82 9.35 15.82 9.35 17.16 10.68 17.16 12.01 17.16 12.01 18.49 13.35 18.49 14.68 18.49 16.02 18.49 17.35 18.49 17.35 17.16 16.02 17.16 14.68 17.16"/><rect class="cls-5" x="8.01" y="19.83" width="1.34" height="1.34"/><polygon class="cls-5" points="18.69 21.16 17.35 21.16 16.02 21.16 14.68 21.16 13.35 21.16 13.35 22.5 14.68 22.5 16.02 22.5 17.35 22.5 18.69 22.5 20.02 22.5 20.02 21.16 18.69 21.16"/><polygon class="cls-5" points="10.68 22.5 12.01 22.5 12.01 21.16 10.68 21.16 9.35 21.16 9.35 22.5 10.68 22.5"/><polygon class="cls-5" points="20.02 27.83 21.35 27.83 22.68 27.83 24.02 27.83 25.36 27.83 25.36 26.5 25.36 25.17 24.02 25.17 22.68 25.17 21.35 25.17 20.02 25.17 20.02 26.5 20.02 27.83"/><rect class="cls-6" x="22.69" y="10.49" width="1.34" height="1.34"/><rect class="cls-6" x="24.02" y="11.82" width="1.34" height="1.34"/><rect class="cls-6" x="10.68" y="11.82" width="1.34" height="1.34"/><rect class="cls-6" x="26.69" y="13.16" width="1.34" height="1.34"/><polygon class="cls-6" points="21.35 13.16 20.02 13.16 18.69 13.16 17.35 13.16 16.02 13.16 14.68 13.16 13.35 13.16 12.01 13.16 12.01 14.49 13.35 14.49 13.35 15.82 14.68 15.82 14.68 14.49 16.02 14.49 17.35 14.49 18.69 14.49 20.02 14.49 21.35 14.49 22.68 14.49 24.02 14.49 24.02 13.16 22.68 13.16 21.35 13.16"/><rect class="cls-6" x="2.67" y="13.16" width="1.34" height="1.34"/><rect class="cls-6" x="28.03" y="14.49" width="1.34" height="1.33"/><polygon class="cls-6" points="25.36 15.82 26.69 15.82 26.69 14.49 25.36 14.49 24.02 14.49 24.02 15.82 25.36 15.82"/><rect class="cls-6" x="4.01" y="14.49" width="1.34" height="1.33"/><polygon class="cls-6" points="30.7 17.16 32.03 17.16 32.03 15.82 30.7 15.82 29.36 15.82 29.36 17.16 30.7 17.16"/><rect class="cls-6" x="26.69" y="15.82" width="1.34" height="1.34"/><polygon class="cls-6" points="16.02 17.16 17.35 17.16 17.35 15.82 16.02 15.82 14.68 15.82 14.68 17.16 16.02 17.16"/><rect class="cls-6" x="5.34" y="15.82" width="1.34" height="1.34"/><polygon class="cls-6" points="2.67 15.82 2.67 14.49 1.33 14.49 1.33 15.82 1.33 17.16 1.33 18.49 2.67 18.49 2.67 17.16 2.67 15.82"/><rect class="cls-6" x="17.35" y="17.16" width="1.34" height="1.34"/><rect class="cls-6" x="6.68" y="17.16" width="1.34" height="1.34"/><polygon class="cls-6" points="30.7 18.49 30.7 19.83 32.03 19.83 33.36 19.83 33.36 18.49 33.36 17.16 32.03 17.16 32.03 18.49 30.7 18.49"/><rect class="cls-6" x="8.01" y="18.49" width="1.34" height="1.34"/><polygon class="cls-6" points="4 18.49 2.67 18.49 2.67 19.83 4 19.83 5.34 19.83 5.34 18.49 4 18.49"/><polygon class="cls-6" points="28.03 19.83 28.03 21.16 29.36 21.16 30.7 21.16 30.7 19.83 29.36 19.83 28.03 19.83"/><polygon class="cls-6" points="10.68 19.83 9.35 19.83 9.35 21.16 10.68 21.16 12.01 21.16 12.01 19.83 10.68 19.83"/><polygon class="cls-6" points="6.68 19.83 5.34 19.83 5.34 21.16 6.68 21.16 8.01 21.16 8.01 19.83 6.68 19.83"/><polygon class="cls-6" points="25.36 21.16 25.36 22.5 26.69 22.5 28.03 22.5 28.03 21.16 26.69 21.16 25.36 21.16"/><rect class="cls-6" x="8.01" y="21.16" width="1.34" height="1.34"/><polygon class="cls-6" points="4 22.5 4 23.83 5.34 23.83 5.34 25.17 6.68 25.17 6.68 23.83 6.68 22.5 5.34 22.5 5.34 21.16 4 21.16 4 22.5"/><polygon class="cls-6" points="22.68 22.5 22.68 21.16 21.35 21.16 20.02 21.16 20.02 22.5 18.69 22.5 17.35 22.5 16.02 22.5 14.68 22.5 13.35 22.5 13.35 21.16 12.01 21.16 12.01 22.5 10.68 22.5 10.68 23.83 12.01 23.83 13.35 23.83 14.68 23.83 16.02 23.83 17.35 23.83 18.69 23.83 20.02 23.83 21.35 23.83 22.68 23.83 24.02 23.83 25.36 23.83 25.36 22.5 24.02 22.5 22.68 22.5"/><polygon class="cls-6" points="9.35 25.17 9.35 26.5 10.68 26.5 10.68 27.83 12.01 27.83 13.35 27.83 14.68 27.83 16.02 27.83 16.02 26.5 16.02 25.17 14.68 25.17 13.35 25.17 12.01 25.17 10.68 25.17 10.68 23.83 9.35 23.83 9.35 25.17"/><polygon class="cls-7" points="12.01 9.15 13.35 9.15 14.68 9.15 16.02 9.15 17.35 9.15 18.69 9.15 20.02 9.15 21.35 9.15 22.68 9.15 24.02 9.15 25.36 9.15 25.36 7.82 24.02 7.82 22.68 7.82 21.35 7.82 20.02 7.82 18.69 7.82 17.35 7.82 16.02 7.82 14.68 7.82 13.35 7.82 12.01 7.82 10.68 7.82 10.68 9.15 12.01 9.15"/><polygon class="cls-7" points="26.69 10.49 28.03 10.49 28.03 9.15 26.69 9.15 25.36 9.15 25.36 10.49 26.69 10.49"/><polygon class="cls-7" points="10.68 10.49 10.68 9.15 9.35 9.15 8.01 9.15 8.01 10.49 9.35 10.49 10.68 10.49"/><polygon class="cls-7" points="29.36 11.82 30.7 11.82 30.7 10.49 29.36 10.49 28.03 10.49 28.03 11.82 29.36 11.82"/><polygon class="cls-7" points="8.01 11.82 8.01 10.49 6.68 10.49 5.34 10.49 5.34 11.82 6.68 11.82 8.01 11.82"/><polygon class="cls-7" points="32.03 13.16 33.36 13.16 33.36 11.82 32.03 11.82 30.7 11.82 30.7 13.16 32.03 13.16"/><polygon class="cls-7" points="5.34 13.16 5.34 11.82 4 11.82 2.67 11.82 2.67 13.16 4 13.16 5.34 13.16"/><rect class="cls-7" x="33.36" y="13.16" width="1.34" height="1.34"/><rect class="cls-7" x="1.34" y="13.16" width="1.34" height="1.34"/><polygon class="cls-7" points="34.7 17.16 34.7 18.49 33.36 18.49 33.36 19.83 34.7 19.83 34.7 21.16 34.7 22.5 36.03 22.5 36.03 21.16 36.03 19.83 36.03 18.49 36.03 17.16 36.03 15.82 36.03 14.49 34.7 14.49 34.7 15.82 34.7 17.16"/><polygon class="cls-7" points="33.36 21.16 33.36 19.83 32.03 19.83 30.7 19.83 30.7 21.16 32.03 21.16 33.36 21.16"/><polygon class="cls-7" points="4 21.16 5.34 21.16 5.34 19.83 4 19.83 2.67 19.83 2.67 21.16 4 21.16"/><polygon class="cls-7" points="1.33 19.83 2.67 19.83 2.67 18.49 1.33 18.49 1.33 17.16 1.33 15.82 1.33 14.49 0 14.49 0 15.82 0 17.16 0 18.49 0 19.83 0 21.16 0 22.5 1.33 22.5 1.33 21.16 1.33 19.83"/><polygon class="cls-7" points="30.7 22.5 30.7 21.16 29.36 21.16 28.03 21.16 28.03 22.5 29.36 22.5 30.7 22.5"/><polygon class="cls-7" points="6.68 22.5 8.01 22.5 8.01 21.16 6.68 21.16 5.34 21.16 5.34 22.5 6.68 22.5"/><rect class="cls-7" x="33.36" y="22.5" width="1.34" height="1.34"/><polygon class="cls-7" points="28.03 23.83 28.03 22.5 26.69 22.5 25.36 22.5 25.36 23.83 26.69 23.83 28.03 23.83"/><polygon class="cls-7" points="9.35 23.83 10.68 23.83 10.68 22.5 9.35 22.5 8.01 22.5 8.01 23.83 9.35 23.83"/><rect class="cls-7" x="1.34" y="22.5" width="1.34" height="1.34"/><polygon class="cls-7" points="30.7 23.83 30.7 25.17 32.03 25.17 33.36 25.17 33.36 23.83 32.03 23.83 30.7 23.83"/><polygon class="cls-7" points="12.01 25.17 13.35 25.17 14.68 25.17 16.02 25.17 17.35 25.17 18.69 25.17 20.02 25.17 21.35 25.17 22.68 25.17 24.02 25.17 25.36 25.17 25.36 23.83 24.02 23.83 22.68 23.83 21.35 23.83 20.02 23.83 18.69 23.83 17.35 23.83 16.02 23.83 14.68 23.83 13.35 23.83 12.01 23.83 10.68 23.83 10.68 25.17 12.01 25.17"/><polygon class="cls-7" points="4 23.83 2.67 23.83 2.67 25.17 4 25.17 5.34 25.17 5.34 23.83 4 23.83"/><polygon class="cls-7" points="28.03 25.17 28.03 26.5 29.36 26.5 30.7 26.5 30.7 25.17 29.36 25.17 28.03 25.17"/><polygon class="cls-7" points="6.68 25.17 5.34 25.17 5.34 26.5 6.68 26.5 8.01 26.5 8.01 25.17 6.68 25.17"/><polygon class="cls-7" points="25.36 26.5 25.36 27.83 26.69 27.83 28.03 27.83 28.03 26.5 26.69 26.5 25.36 26.5"/><polygon class="cls-7" points="9.35 26.5 8.01 26.5 8.01 27.83 9.35 27.83 10.68 27.83 10.68 26.5 9.35 26.5"/><polygon class="cls-7" points="22.68 27.83 21.35 27.83 20.02 27.83 18.69 27.83 17.35 27.83 16.02 27.83 14.68 27.83 13.35 27.83 12.01 27.83 10.68 27.83 10.68 29.17 12.01 29.17 13.35 29.17 14.68 29.17 16.02 29.17 17.35 29.17 18.69 29.17 20.02 29.17 21.35 29.17 22.68 29.17 24.02 29.17 25.36 29.17 25.36 27.83 24.02 27.83 22.68 27.83"/><polygon class="cls-1" points="32.03 13.35 30.7 13.35 30.7 14.68 30.7 16.02 32.03 16.02 33.36 16.02 33.36 14.68 34.7 14.68 34.7 13.35 34.7 12.01 33.36 12.01 33.36 13.35 32.03 13.35"/><polygon class="cls-2" points="1.33 14.68 2.67 14.68 2.67 16.02 4 16.02 4 14.68 4 13.35 2.67 13.35 2.67 12.01 1.33 12.01 1.33 13.35 1.33 14.68"/><polygon class="cls-2" points="6.68 17.35 8.01 17.35 8.01 18.68 9.35 18.68 9.35 17.35 9.35 16.02 8.01 16.02 8.01 14.68 6.68 14.68 6.68 16.02 6.68 17.35"/><polygon class="cls-2" points="16.02 20.02 17.35 20.02 18.69 20.02 20.02 20.02 20.02 18.68 20.02 17.35 18.69 17.35 17.35 17.35 16.02 17.35 16.02 18.68 16.02 20.02"/><polygon class="cls-3" points="13.35 5.34 14.68 5.34 16.02 5.34 17.35 5.34 18.69 5.34 20.02 5.34 21.35 5.34 22.68 5.34 24.02 5.34 24.02 4 22.68 4 21.35 4 20.02 4 18.69 4 17.35 4 16.02 4 14.68 4 13.35 4 12.01 4 12.01 5.34 13.35 5.34"/><polygon class="cls-3" points="25.36 6.68 26.69 6.68 26.69 5.34 25.36 5.34 24.02 5.34 24.02 6.68 25.36 6.68"/><polygon class="cls-3" points="12.01 6.68 12.01 5.34 10.68 5.34 9.35 5.34 9.35 6.68 10.68 6.68 12.01 6.68"/><rect class="cls-3" x="26.69" y="6.68" width="1.34" height="1.33"/><rect class="cls-3" x="8.01" y="6.68" width="1.34" height="1.33"/><rect class="cls-3" x="28.03" y="8" width="1.34" height="1.34"/><rect class="cls-3" x="6.68" y="8" width="1.34" height="1.34"/><rect class="cls-3" x="26.69" y="9.34" width="1.34" height="1.34"/><rect class="cls-3" x="8.01" y="9.34" width="1.34" height="1.34"/><polygon class="cls-3" points="24.02 10.68 24.02 12.01 25.36 12.01 26.69 12.01 26.69 10.68 25.36 10.68 24.02 10.68"/><polygon class="cls-3" points="10.68 10.68 9.35 10.68 9.35 12.01 10.68 12.01 12.01 12.01 12.01 10.68 10.68 10.68"/><polygon class="cls-3" points="21.35 12.01 20.02 12.01 18.69 12.01 17.35 12.01 16.02 12.01 14.68 12.01 13.35 12.01 12.01 12.01 12.01 13.35 13.35 13.35 14.68 13.35 16.02 13.35 17.35 13.35 18.69 13.35 20.02 13.35 21.35 13.35 22.68 13.35 24.02 13.35 24.02 12.01 22.68 12.01 21.35 12.01"/><polygon class="cls-3" points="26.69 16.02 25.36 16.02 25.36 17.35 25.36 18.68 26.69 18.68 28.03 18.68 28.03 17.35 29.36 17.35 30.7 17.35 30.7 16.02 30.7 14.68 29.36 14.68 28.03 14.68 28.03 16.02 26.69 16.02"/><polygon class="cls-4" points="12.01 2.67 13.35 2.67 14.68 2.67 16.02 2.67 17.35 2.67 18.69 2.67 20.02 2.67 21.35 2.67 22.68 2.67 24.02 2.67 25.36 2.67 25.36 1.33 24.02 1.33 22.68 1.33 21.35 1.33 20.02 1.33 18.69 1.33 17.35 1.33 16.02 1.33 14.68 1.33 13.35 1.33 12.01 1.33 10.68 1.33 10.68 2.67 12.01 2.67"/><polygon class="cls-4" points="26.69 4 28.03 4 28.03 2.67 26.69 2.67 25.36 2.67 25.36 4 26.69 4"/><polygon class="cls-4" points="8.01 2.67 8.01 4 9.35 4 10.68 4 10.68 2.67 9.35 2.67 8.01 2.67"/><polygon class="cls-4" points="29.36 5.34 30.7 5.34 30.7 4 29.36 4 28.03 4 28.03 5.34 29.36 5.34"/><polygon class="cls-4" points="5.34 4 5.34 5.34 6.68 5.34 8.01 5.34 8.01 4 6.68 4 5.34 4"/><polygon class="cls-4" points="32.03 6.68 33.36 6.68 33.36 5.34 32.03 5.34 30.7 5.34 30.7 6.68 32.03 6.68"/><polygon class="cls-4" points="12.01 8.01 12.01 6.68 10.68 6.68 9.35 6.68 9.35 8.01 10.68 8.01 12.01 8.01"/><polygon class="cls-4" points="33.36 9.34 33.36 10.68 34.7 10.68 34.7 9.34 34.7 8.01 34.7 6.68 33.36 6.68 33.36 8.01 33.36 9.34"/><rect class="cls-4" x="8.01" y="8" width="1.34" height="1.34"/><polygon class="cls-4" points="26.69 10.68 26.69 9.34 25.36 9.34 24.02 9.34 24.02 10.68 25.36 10.68 26.69 10.68"/><polygon class="cls-4" points="10.68 9.34 9.35 9.34 9.35 10.68 10.68 10.68 12.01 10.68 12.01 9.34 10.68 9.34"/><polygon class="cls-4" points="22.68 10.68 21.35 10.68 20.02 10.68 18.69 10.68 17.35 10.68 16.02 10.68 14.68 10.68 13.35 10.68 12.01 10.68 12.01 12.01 13.35 12.01 14.68 12.01 16.02 12.01 17.35 12.01 18.69 12.01 20.02 12.01 21.35 12.01 22.68 12.01 24.02 12.01 24.02 10.68 22.68 10.68"/><rect class="cls-5" x="24.02" y="2.67" width="1.34" height="1.34"/><polygon class="cls-5" points="12.01 4 13.35 4 14.68 4 16.02 4 17.35 4 18.69 4 20.02 4 21.35 4 22.68 4 22.68 2.67 21.35 2.67 20.02 2.67 18.69 2.67 17.35 2.67 16.02 2.67 14.68 2.67 13.35 2.67 12.01 2.67 10.68 2.67 10.68 4 12.01 4"/><polygon class="cls-5" points="26.69 5.34 28.03 5.34 28.03 4 26.69 4 25.36 4 25.36 5.34 26.69 5.34"/><polygon class="cls-5" points="8.01 4 8.01 5.34 6.68 5.34 5.34 5.34 4 5.34 4 6.68 5.34 6.68 5.34 8.01 6.68 8.01 8.01 8.01 8.01 6.68 9.35 6.68 9.35 5.34 10.68 5.34 10.68 4 9.35 4 8.01 4"/><polygon class="cls-5" points="29.36 6.68 29.36 8.01 30.7 8.01 32.03 8.01 32.03 9.34 33.36 9.34 33.36 8.01 33.36 6.68 32.03 6.68 30.7 6.68 30.7 5.34 29.36 5.34 28.03 5.34 28.03 6.68 29.36 6.68"/><polygon class="cls-5" points="4 6.68 2.67 6.68 2.67 8.01 2.67 9.34 2.67 10.68 4 10.68 5.34 10.68 5.34 12.01 6.68 12.01 8.01 12.01 8.01 10.68 6.68 10.68 6.68 9.34 5.34 9.34 5.34 8.01 4 8.01 4 6.68"/><polygon class="cls-5" points="29.36 9.34 28.03 9.34 28.03 10.68 26.69 10.68 26.69 12.01 25.36 12.01 24.02 12.01 24.02 13.35 22.68 13.35 22.68 14.68 24.02 14.68 25.36 14.68 25.36 13.35 26.69 13.35 28.03 13.35 28.03 12.01 29.36 12.01 30.7 12.01 30.7 10.68 32.03 10.68 32.03 9.34 30.7 9.34 29.36 9.34"/><polygon class="cls-5" points="18.69 10.68 20.02 10.68 21.35 10.68 22.68 10.68 24.02 10.68 24.02 9.34 25.36 9.34 26.69 9.34 26.69 8.01 25.36 8.01 24.02 8.01 24.02 6.68 22.68 6.68 21.35 6.68 20.02 6.68 18.69 6.68 17.35 6.68 16.02 6.68 14.68 6.68 14.68 8.01 16.02 8.01 17.35 8.01 17.35 9.34 18.69 9.34 18.69 10.68"/><polygon class="cls-5" points="14.68 9.34 14.68 8.01 13.35 8.01 13.35 6.68 12.01 6.68 12.01 8.01 10.68 8.01 9.35 8.01 9.35 9.34 10.68 9.34 12.01 9.34 12.01 10.68 13.35 10.68 14.68 10.68 16.02 10.68 17.35 10.68 17.35 9.34 16.02 9.34 14.68 9.34"/><rect class="cls-5" x="8.01" y="12.01" width="1.34" height="1.34"/><polygon class="cls-5" points="18.69 13.35 17.35 13.35 16.02 13.35 14.68 13.35 13.35 13.35 13.35 14.68 14.68 14.68 16.02 14.68 17.35 14.68 18.69 14.68 20.02 14.68 20.02 13.35 18.69 13.35"/><polygon class="cls-5" points="10.68 14.68 12.01 14.68 12.01 13.35 10.68 13.35 9.35 13.35 9.35 14.68 10.68 14.68"/><polygon class="cls-5" points="20.02 20.02 21.35 20.02 22.68 20.02 24.02 20.02 25.36 20.02 25.36 18.68 25.36 17.35 24.02 17.35 22.68 17.35 21.35 17.35 20.02 17.35 20.02 18.68 20.02 20.02"/><rect class="cls-6" x="22.69" y="2.67" width="1.34" height="1.34"/><rect class="cls-6" x="24.02" y="4.01" width="1.34" height="1.34"/><rect class="cls-6" x="10.68" y="4.01" width="1.34" height="1.34"/><rect class="cls-6" x="26.69" y="5.34" width="1.34" height="1.34"/><polygon class="cls-6" points="21.35 5.34 20.02 5.34 18.69 5.34 17.35 5.34 16.02 5.34 14.68 5.34 13.35 5.34 12.01 5.34 12.01 6.68 13.35 6.68 13.35 8.01 14.68 8.01 14.68 6.68 16.02 6.68 17.35 6.68 18.69 6.68 20.02 6.68 21.35 6.68 22.68 6.68 24.02 6.68 24.02 5.34 22.68 5.34 21.35 5.34"/><rect class="cls-6" x="2.67" y="5.34" width="1.34" height="1.34"/><rect class="cls-6" x="28.03" y="6.68" width="1.34" height="1.33"/><polygon class="cls-6" points="25.36 8.01 26.69 8.01 26.69 6.68 25.36 6.68 24.02 6.68 24.02 8.01 25.36 8.01"/><rect class="cls-6" x="4.01" y="6.68" width="1.34" height="1.33"/><polygon class="cls-6" points="30.7 9.34 32.03 9.34 32.03 8.01 30.7 8.01 29.36 8.01 29.36 9.34 30.7 9.34"/><rect class="cls-6" x="26.69" y="8" width="1.34" height="1.34"/><polygon class="cls-6" points="16.02 9.34 17.35 9.34 17.35 8.01 16.02 8.01 14.68 8.01 14.68 9.34 16.02 9.34"/><rect class="cls-6" x="5.34" y="8" width="1.34" height="1.34"/><polygon class="cls-6" points="2.67 8.01 2.67 6.68 1.33 6.68 1.33 8.01 1.33 9.34 1.33 10.68 2.67 10.68 2.67 9.34 2.67 8.01"/><rect class="cls-6" x="17.35" y="9.34" width="1.34" height="1.34"/><rect class="cls-6" x="6.68" y="9.34" width="1.34" height="1.34"/><polygon class="cls-6" points="30.7 10.68 30.7 12.01 32.03 12.01 33.36 12.01 33.36 10.68 33.36 9.34 32.03 9.34 32.03 10.68 30.7 10.68"/><rect class="cls-6" x="8.01" y="10.68" width="1.34" height="1.34"/><polygon class="cls-6" points="4 10.68 2.67 10.68 2.67 12.01 4 12.01 5.34 12.01 5.34 10.68 4 10.68"/><polygon class="cls-6" points="28.03 12.01 28.03 13.35 29.36 13.35 30.7 13.35 30.7 12.01 29.36 12.01 28.03 12.01"/><polygon class="cls-6" points="10.68 12.01 9.35 12.01 9.35 13.35 10.68 13.35 12.01 13.35 12.01 12.01 10.68 12.01"/><polygon class="cls-6" points="6.68 12.01 5.34 12.01 5.34 13.35 6.68 13.35 8.01 13.35 8.01 12.01 6.68 12.01"/><polygon class="cls-6" points="25.36 13.35 25.36 14.68 26.69 14.68 28.03 14.68 28.03 13.35 26.69 13.35 25.36 13.35"/><rect class="cls-6" x="8.01" y="13.35" width="1.34" height="1.34"/><polygon class="cls-6" points="4 14.68 4 16.02 5.34 16.02 5.34 17.35 6.68 17.35 6.68 16.02 6.68 14.68 5.34 14.68 5.34 13.35 4 13.35 4 14.68"/><polygon class="cls-6" points="22.68 14.68 22.68 13.35 21.35 13.35 20.02 13.35 20.02 14.68 18.69 14.68 17.35 14.68 16.02 14.68 14.68 14.68 13.35 14.68 13.35 13.35 12.01 13.35 12.01 14.68 10.68 14.68 10.68 16.02 12.01 16.02 13.35 16.02 14.68 16.02 16.02 16.02 17.35 16.02 18.69 16.02 20.02 16.02 21.35 16.02 22.68 16.02 24.02 16.02 25.36 16.02 25.36 14.68 24.02 14.68 22.68 14.68"/><polygon class="cls-6" points="9.35 17.35 9.35 18.68 10.68 18.68 10.68 20.02 12.01 20.02 13.35 20.02 14.68 20.02 16.02 20.02 16.02 18.68 16.02 17.35 14.68 17.35 13.35 17.35 12.01 17.35 10.68 17.35 10.68 16.02 9.35 16.02 9.35 17.35"/><polygon class="cls-7" points="12.01 1.33 13.35 1.33 14.68 1.33 16.02 1.33 17.35 1.33 18.69 1.33 20.02 1.33 21.35 1.33 22.68 1.33 24.02 1.33 25.36 1.33 25.36 0 24.02 0 22.68 0 21.35 0 20.02 0 18.69 0 17.35 0 16.02 0 14.68 0 13.35 0 12.01 0 10.68 0 10.68 1.33 12.01 1.33"/><polygon class="cls-7" points="26.69 2.67 28.03 2.67 28.03 1.33 26.69 1.33 25.36 1.33 25.36 2.67 26.69 2.67"/><polygon class="cls-7" points="10.68 2.67 10.68 1.33 9.35 1.33 8.01 1.33 8.01 2.67 9.35 2.67 10.68 2.67"/><polygon class="cls-7" points="29.36 4 30.7 4 30.7 2.67 29.36 2.67 28.03 2.67 28.03 4 29.36 4"/><polygon class="cls-7" points="8.01 4 8.01 2.67 6.68 2.67 5.34 2.67 5.34 4 6.68 4 8.01 4"/><polygon class="cls-7" points="32.03 5.34 33.36 5.34 33.36 4 32.03 4 30.7 4 30.7 5.34 32.03 5.34"/><polygon class="cls-7" points="5.34 5.34 5.34 4 4 4 2.67 4 2.67 5.34 4 5.34 5.34 5.34"/><rect class="cls-7" x="33.36" y="5.34" width="1.34" height="1.34"/><rect class="cls-7" x="1.34" y="5.34" width="1.34" height="1.34"/><polygon class="cls-7" points="34.7 9.34 34.7 10.68 33.36 10.68 33.36 12.01 34.7 12.01 34.7 13.35 34.7 14.68 36.03 14.68 36.03 13.35 36.03 12.01 36.03 10.68 36.03 9.34 36.03 8.01 36.03 6.68 34.7 6.68 34.7 8.01 34.7 9.34"/><polygon class="cls-7" points="33.36 13.35 33.36 12.01 32.03 12.01 30.7 12.01 30.7 13.35 32.03 13.35 33.36 13.35"/><polygon class="cls-7" points="4 13.35 5.34 13.35 5.34 12.01 4 12.01 2.67 12.01 2.67 13.35 4 13.35"/><polygon class="cls-7" points="1.33 12.01 2.67 12.01 2.67 10.68 1.33 10.68 1.33 9.34 1.33 8.01 1.33 6.68 0 6.68 0 8.01 0 9.34 0 10.68 0 12.01 0 13.35 0 14.68 1.33 14.68 1.33 13.35 1.33 12.01"/><polygon class="cls-7" points="30.7 14.68 30.7 13.35 29.36 13.35 28.03 13.35 28.03 14.68 29.36 14.68 30.7 14.68"/><polygon class="cls-7" points="6.68 14.68 8.01 14.68 8.01 13.35 6.68 13.35 5.34 13.35 5.34 14.68 6.68 14.68"/><rect class="cls-7" x="33.36" y="14.68" width="1.34" height="1.34"/><polygon class="cls-7" points="28.03 16.02 28.03 14.68 26.69 14.68 25.36 14.68 25.36 16.02 26.69 16.02 28.03 16.02"/><polygon class="cls-7" points="9.35 16.02 10.68 16.02 10.68 14.68 9.35 14.68 8.01 14.68 8.01 16.02 9.35 16.02"/><rect class="cls-7" x="1.34" y="14.68" width="1.34" height="1.34"/><polygon class="cls-7" points="30.7 16.02 30.7 17.35 32.03 17.35 33.36 17.35 33.36 16.02 32.03 16.02 30.7 16.02"/><polygon class="cls-7" points="12.01 17.35 13.35 17.35 14.68 17.35 16.02 17.35 17.35 17.35 18.69 17.35 20.02 17.35 21.35 17.35 22.68 17.35 24.02 17.35 25.36 17.35 25.36 16.02 24.02 16.02 22.68 16.02 21.35 16.02 20.02 16.02 18.69 16.02 17.35 16.02 16.02 16.02 14.68 16.02 13.35 16.02 12.01 16.02 10.68 16.02 10.68 17.35 12.01 17.35"/><polygon class="cls-7" points="4 16.02 2.67 16.02 2.67 17.35 4 17.35 5.34 17.35 5.34 16.02 4 16.02"/><polygon class="cls-7" points="28.03 17.35 28.03 18.68 29.36 18.68 30.7 18.68 30.7 17.35 29.36 17.35 28.03 17.35"/><polygon class="cls-7" points="6.68 17.35 5.34 17.35 5.34 18.68 6.68 18.68 8.01 18.68 8.01 17.35 6.68 17.35"/><polygon class="cls-7" points="25.36 18.68 25.36 20.02 26.69 20.02 28.03 20.02 28.03 18.68 26.69 18.68 25.36 18.68"/><polygon class="cls-7" points="9.35 18.68 8.01 18.68 8.01 20.02 9.35 20.02 10.68 20.02 10.68 18.68 9.35 18.68"/><polygon class="cls-7" points="22.68 20.02 21.35 20.02 20.02 20.02 18.69 20.02 17.35 20.02 16.02 20.02 14.68 20.02 13.35 20.02 12.01 20.02 10.68 20.02 10.68 21.35 12.01 21.35 13.35 21.35 14.68 21.35 16.02 21.35 17.35 21.35 18.69 21.35 20.02 21.35 21.35 21.35 22.68 21.35 24.02 21.35 25.36 21.35 25.36 20.02 24.02 20.02 22.68 20.02"/><path class="cls-8" d="M22.21,9.69l-1.39,1.15L18.59,9.57l-.93,2.25L13.82,9.33a11,11,0,0,1,1.78-.9l1.54,1.1L18,7.9Zm-.38-3.45L20.9,7H14.78L14,6.32l.13-.13.62-.58,6.27.1Z"/></g></g></svg>