<?xml version="1.0" encoding="utf-8"?>
<!-- Generator: Adobe Illustrator 26.0.2, SVG Export Plug-In . SVG Version: 6.00 Build 0)  -->
<svg version="1.1" xmlns="http://www.w3.org/2000/svg" xmlns:xlink="http://www.w3.org/1999/xlink" x="0px" y="0px"
	 viewBox="0 0 559.11 142.13" style="enable-background:new 0 0 559.11 142.13;" xml:space="preserve">
<style type="text/css">
	.st0{fill:#FFFFFF;}
</style>
<g id="Desktop_-_Staking_LP">
</g>
<g id="Desktop_-_HP">
</g>
<g id="_x2A_Labels">
</g>
<g id="_x2A__x2A_WIP_x2A__x2A_">
	<g>
		<g>
			<path class="st0" d="M131.16,51.64c3.73,2.31,5.62,5.58,5.7,9.99c0,0.3,0,0.45,0,0.76c-5.55-0.07-8.33-0.1-13.88-0.17
				c0-0.1,0-0.15,0-0.26c0-1.28-0.49-2.35-1.46-3.22c-0.98-0.87-2.47-1.33-4.48-1.37c-1.97-0.04-3.48,0.21-4.53,0.75
				c-1.06,0.54-1.59,1.23-1.59,2.05c-0.01,1.17,0.71,2.05,2.14,2.64c1.43,0.58,3.75,1.19,6.91,1.85c3.7,0.76,6.77,1.57,9.16,2.39
				c2.39,0.82,4.49,2.14,6.3,3.97c1.8,1.83,2.77,4.34,2.83,7.47c0.1,5.31-1.75,9.42-5.41,12.05s-8.78,4.12-14.75,3.94
				c-5.55-0.17-11.7-0.55-16.77-3.61c-4-2.41-6.06-6.67-6.15-12.79c5.6,0.01,8.4,0.02,14,0.03c0.03,2.31,0.66,3.86,1.87,4.64
				c1.21,0.78,3.09,1.17,5.64,1.17c1.87,0,3.42-0.2,4.65-0.6c1.22-0.4,1.83-1.22,1.81-2.46c-0.01-1.11-0.71-1.94-2.07-2.5
				c-1.37-0.55-3.62-1.13-6.69-1.77c-3.75-0.78-6.88-1.65-9.35-2.52c-2.47-0.87-4.63-2.32-6.49-4.33c-1.85-2.02-2.8-4.75-2.79-8.18
				c0.01-5.03,2.06-8.7,6.04-10.9c3.98-2.2,8.98-3.12,14.95-2.87C122.63,48.03,127.42,49.33,131.16,51.64z"/>
			<path class="st0" d="M176.78,93.68c0-5.76-0.05-11.53-0.1-17.29c-5.43-0.01-10.85-0.02-16.28-0.03
				c0.06,5.77,0.11,11.54,0.11,17.32c-5.92,0-8.87,0-14.79,0c-0.07-14.7-0.36-29.39-0.04-44.08c5.92,0.19,8.87,0.28,14.79,0.46
				c-0.16,5.73-0.16,8.7-0.15,15.02c5.43,0.04,10.86,0.08,16.29,0.12c-0.01-6.24-0.01-9.16,0.12-14.7
				c5.92,0.15,8.87,0.22,14.79,0.34c-0.28,14.28-0.01,28.57,0.03,42.85C185.65,93.68,182.69,93.68,176.78,93.68z"/>
			<path class="st0" d="M232.63,51.51c6.11,0.07,12.23,0.13,18.34,0.17c-5.81,4.92-11.32,10.21-16.58,15.72
				c5.81,8.65,11.4,17.43,16.93,26.27c-5.82,0-11.64,0-17.47,0c-3.18-5.57-6.38-11.13-9.62-16.66c-3.2,2.53-4.81,3.82-8.01,6.4
				c0.02,4.07,0.03,6.14,0.03,10.26c-5.91,0-8.87,0-14.79,0c-0.04-14.21-0.27-28.43-0.03-42.65c5.92,0.11,8.88,0.16,14.79,0.25
				c-0.08,5.58-0.09,11.16-0.06,16.74C221.46,62.3,226.8,56.69,232.63,51.51z"/>
			<path class="st0" d="M296.24,55.82c5.2,3.6,6.17,9.94,6.5,15.39c0.36,5.98-1.84,12.85-6.51,17.19
				c-4.88,4.54-11.92,6.07-18.4,6.07c-6.46,0-13.5-1.51-18.37-6.04c-4.68-4.35-6.85-11.24-6.49-17.23
				c0.33-5.45,1.27-11.82,6.47-15.42c5.26-3.64,12.16-4.59,18.39-4.59C284.06,51.2,290.97,52.18,296.24,55.82z M270.57,62.31
				c-1.65,1.64-2.48,3.93-2.48,6.93c0,1.58,0,2.37,0,3.99c0,3.07,0.83,5.57,2.48,7.45c1.65,1.88,4.06,2.83,7.23,2.83
				c3.17,0,5.59-0.95,7.26-2.83c1.67-1.88,2.51-4.38,2.51-7.45c0-1.61,0-2.41,0-3.99c0-2.99-0.84-5.28-2.51-6.93
				c-1.68-1.64-4.1-2.43-7.27-2.43C274.64,59.88,272.23,60.66,270.57,62.31z"/>
			<path class="st0" d="M352.04,55.39c4.85,3.59,6.57,9.93,6.51,15.72c-0.06,6.22-1.88,12.92-6.58,17.29
				c-4.89,4.54-11.93,6.08-18.41,6.08c-6.46,0-13.5-1.51-18.36-6.04c-4.67-4.35-6.8-11.24-6.43-17.23c0.34-5.48,1.3-11.83,6.46-15.5
				c5.22-3.7,12.11-4.79,18.34-4.88C339.83,50.74,346.86,51.56,352.04,55.39z M326.4,62.21c-1.65,1.67-2.48,3.98-2.49,6.98
				c0,1.58-0.01,2.38-0.01,4c-0.01,3.08,0.81,5.59,2.45,7.47c1.64,1.88,4.05,2.83,7.22,2.83c3.17,0,5.59-0.95,7.27-2.83
				c1.68-1.88,2.53-4.4,2.54-7.5c0.01-1.63,0.01-2.43,0.01-4.02c0.01-3.02-0.83-5.33-2.5-7.01c-1.68-1.67-4.1-2.46-7.27-2.44
				C330.46,59.71,328.05,60.53,326.4,62.21z"/>
			<path class="st0" d="M403.52,51.19c1.96,0.78,3.53,1.92,4.7,3.45c1.16,1.53,1.75,3.28,1.76,5.24c0.02,5.2-2.58,8.7-7.73,10.13
				c0,0.1,0,0.15,0,0.26c5.84,1.26,8.73,4.93,8.67,11.2c-0.02,2.39-0.63,4.51-1.83,6.35c-1.19,1.85-2.82,3.28-4.87,4.31
				c-2.05,1.03-4.31,1.54-6.76,1.54c-10.35,0-20.7,0-31.05,0c0.04-14.26,0.3-28.53,0.03-42.79c10.22-0.22,20.44-0.47,30.65-0.75
				C399.42,50.06,401.56,50.41,403.52,51.19z M381.35,66.26c4.08-0.02,6.11-0.04,10.19-0.06c0.98-0.01,1.8-0.34,2.45-0.99
				c0.65-0.65,0.97-1.46,0.97-2.4c0-0.24,0-0.37,0-0.61c0-0.89-0.34-1.65-1.01-2.26c-0.67-0.61-1.48-0.91-2.42-0.9
				c-4.08,0.05-6.11,0.08-10.19,0.12C381.36,61.93,381.36,63.34,381.35,66.26z M381.24,83.02c4.5,0,6.75,0,11.25,0
				c0.98,0,1.8-0.34,2.45-1.03c0.65-0.68,0.98-1.53,0.99-2.54c0-0.26,0-0.4,0.01-0.66c0.01-1.01-0.31-1.84-0.95-2.51
				c-0.64-0.67-1.45-1-2.44-1c-4.5,0.01-6.75,0.01-11.25,0.02C381.28,78.34,381.26,79.89,381.24,83.02z"/>
			<path class="st0" d="M445.9,93.68c-5.92,0-8.87,0-14.79,0c0-5.93,0.08-11.85,0.16-17.78c-5.87-8.97-11.88-17.75-18.38-26.28
				c5.67-0.18,11.33-0.38,17-0.59c3.17,4.64,6.19,9.42,9.06,14.25c0.11,0,0.16,0,0.27,0c2.96-4.92,5.85-9.9,8.6-14.94
				c5.37-0.22,10.75-0.45,16.12-0.69c-5.59,9.63-11.73,18.93-17.86,28.22C445.99,81.8,445.91,87.74,445.9,93.68z"/>
		</g>
	</g>
</g>
</svg>
