<?xml version="1.0" encoding="utf-8"?>
<!-- Generator: Adobe Illustrator 26.0.2, SVG Export Plug-In . SVG Version: 6.00 Build 0)  -->
<svg version="1.1" xmlns="http://www.w3.org/2000/svg" xmlns:xlink="http://www.w3.org/1999/xlink" x="0px" y="0px"
	 viewBox="0 0 559.11 142.13" style="enable-background:new 0 0 559.11 142.13;" xml:space="preserve">
<style type="text/css">
	.st0{fill:#FFFFFF;}
</style>
<g id="Desktop_-_Staking_LP">
</g>
<g id="Desktop_-_HP">
	<g>
		<g>
			<g>
				<path class="st0" d="M113.01,87.97c-2.29,0-4.42-0.16-6.4-0.49c-1.98-0.33-3.72-0.9-5.22-1.72c-1.5-0.82-2.67-1.97-3.52-3.44
					c-0.85-1.48-1.28-3.33-1.28-5.56c0-0.06,0-0.15,0-0.27c0-0.11,0.02-0.23,0.05-0.36c4.03,0.17,6.05,0.26,10.08,0.42
					c-0.03,0.12-0.05,0.24-0.05,0.35c0,0.11,0,0.21,0,0.3c0,0.93,0.23,1.65,0.68,2.16c0.45,0.51,1.09,0.86,1.91,1.05
					c0.82,0.19,1.75,0.3,2.78,0.33c0.39,0.01,0.8,0.01,1.23,0.01c0.43,0,0.85-0.04,1.25-0.1c0.4-0.06,0.77-0.17,1.11-0.31
					c0.34-0.14,0.6-0.34,0.8-0.59c0.19-0.25,0.29-0.57,0.29-0.96c0-0.57-0.28-1.03-0.82-1.38c-0.55-0.35-1.29-0.67-2.22-0.95
					c-0.93-0.28-1.98-0.55-3.14-0.82c-1.16-0.26-2.36-0.57-3.62-0.93c-1.25-0.35-2.46-0.8-3.62-1.33c-1.16-0.53-2.2-1.2-3.13-2
					c-0.93-0.8-1.67-1.79-2.22-2.97c-0.55-1.18-0.82-2.57-0.82-4.18c0-1.93,0.4-3.53,1.2-4.79c0.8-1.26,1.9-2.22,3.3-2.88
					c1.4-0.66,2.98-1.07,4.76-1.23c1.78-0.16,3.65-0.13,5.61,0.1c1.99,0.23,3.86,0.63,5.61,1.2c1.75,0.56,3.3,1.3,4.65,2.2
					c1.35,0.9,2.41,1.96,3.19,3.19c0.77,1.23,1.18,2.64,1.22,4.23c0,0.21,0,0.31,0,0.52c-3.99-0.29-5.99-0.44-9.98-0.74
					c0-0.07,0-0.11,0-0.18c0-0.54-0.15-1.06-0.44-1.56c-0.29-0.5-0.75-0.93-1.38-1.29c-0.63-0.36-1.45-0.58-2.48-0.68
					c-0.96-0.09-1.77-0.07-2.43,0.05c-0.66,0.12-1.15,0.33-1.47,0.63c-0.32,0.29-0.48,0.63-0.48,1c0,0.59,0.27,1.09,0.82,1.5
					c0.55,0.41,1.29,0.78,2.22,1.09c0.93,0.32,1.98,0.62,3.13,0.92c1.16,0.29,2.36,0.61,3.62,0.95c1.25,0.34,2.46,0.75,3.62,1.24
					c1.16,0.49,2.2,1.08,3.14,1.79c0.93,0.71,1.68,1.55,2.23,2.53c0.55,0.98,0.83,2.16,0.83,3.54c0.01,2.45-0.62,4.42-1.89,5.94
					c-1.27,1.52-3,2.64-5.21,3.36C118.32,87.59,115.81,87.97,113.01,87.97z"/>
				<path class="st0" d="M132.95,87.46c-0.03-9.75-0.07-19.49-0.1-29.24c4.26,0.42,6.39,0.63,10.66,1.02
					c0.02,4.12,0.03,6.18,0.04,10.3c4.69,0.28,7.03,0.41,11.73,0.66c-0.02-3.97-0.03-5.96-0.05-9.93c4.27,0.36,6.4,0.53,10.67,0.86
					c0.04,8.79,0.09,17.59,0.13,26.38c-4.27-0.01-6.4-0.01-10.67-0.01c-0.02-4.13-0.03-6.2-0.05-10.33
					c-4.69-0.15-7.04-0.23-11.73-0.4c0.02,4.29,0.03,6.43,0.04,10.71C139.36,87.47,137.22,87.46,132.95,87.46z"/>
				<path class="st0" d="M173.17,87.51c-0.04-8.62-0.09-17.24-0.13-25.86c4.27,0.31,6.4,0.45,10.67,0.73
					c0.02,4.3,0.03,6.45,0.06,10.74c3.9-3.38,7.82-6.72,11.78-10.03c4.41,0.25,8.83,0.48,13.24,0.69c-3.99,3.11-7.94,6.24-11.89,9.4
					c4.02,4.84,8.1,9.62,12.24,14.35c-5.04,0-7.56-0.01-12.6-0.01c-2.84-3.65-4.26-5.5-7.1-9.27c-2.25,1.58-3.38,2.37-5.63,3.99
					c0.01,2.1,0.02,3.16,0.03,5.26C179.58,87.52,177.44,87.52,173.17,87.51z"/>
				<path class="st0" d="M228.89,87.97c-3.77,0-7.92-0.45-10.6-1.36c-2.68-0.91-4.73-2.29-6.15-4.12c-1.43-1.84-2.14-4.11-2.16-6.81
					c-0.01-2.71,0.68-4.96,2.09-6.72c1.41-1.76,3.45-3.03,6.12-3.83c2.67-0.8,5.89-1.11,9.66-0.98c3.8,0.14,7.05,0.68,9.73,1.64
					c2.68,0.95,4.73,2.3,6.15,4.06c1.42,1.75,2.14,3.91,2.14,6.48c0.01,2.55-0.7,4.69-2.11,6.41c-1.41,1.73-3.45,3.03-6.12,3.91
					C234.98,87.52,232.68,87.97,228.89,87.97z M227.93,82.45c1.16,0.01,2.18-0.11,3.07-0.36c0.88-0.25,1.62-0.6,2.22-1.06
					c0.59-0.46,1.04-1.01,1.32-1.66c0.29-0.65,0.43-1.36,0.43-2.13c0-0.85,0-1.27-0.01-2.12c0-0.77-0.15-1.49-0.44-2.14
					c-0.29-0.66-0.74-1.23-1.34-1.7c-0.6-0.48-1.34-0.86-2.23-1.13c-0.89-0.28-1.91-0.43-3.07-0.47c-1.16-0.03-2.18,0.07-3.07,0.3
					c-0.89,0.23-1.62,0.58-2.2,1.03c-0.58,0.46-1.01,1.01-1.3,1.67c-0.29,0.66-0.43,1.38-0.43,2.17c0,0.87,0.01,1.3,0.01,2.16
					c0,0.79,0.15,1.52,0.44,2.19c0.29,0.67,0.73,1.24,1.31,1.72c0.58,0.48,1.32,0.85,2.2,1.12
					C225.75,82.3,226.77,82.44,227.93,82.45z"/>
				<path class="st0" d="M267.24,87.97c-3.77,0-6.99-0.43-9.66-1.29c-2.67-0.86-4.72-2.16-6.14-3.89c-1.42-1.73-2.14-3.87-2.14-6.41
					c-0.01-2.56,0.7-4.69,2.11-6.38c1.41-1.69,3.46-2.94,6.13-3.77c2.67-0.82,5.9-1.21,9.67-1.18c3.81,0.03,7.05,0.47,9.73,1.33
					c2.68,0.86,4.73,2.13,6.14,3.82c1.42,1.69,2.13,3.8,2.12,6.33c0,2.51-0.71,4.61-2.13,6.32c-1.42,1.7-3.46,2.98-6.13,3.84
					C274.27,87.54,271.04,87.97,267.24,87.97z M267.23,82.65c1.16,0,2.18-0.12,3.07-0.36c0.88-0.24,1.62-0.59,2.22-1.04
					c0.6-0.45,1.04-0.99,1.33-1.62c0.29-0.63,0.43-1.32,0.43-2.07c0-0.82,0-1.23,0-2.06c0-0.75-0.15-1.44-0.44-2.07
					c-0.29-0.63-0.73-1.17-1.33-1.63c-0.6-0.45-1.34-0.8-2.22-1.05c-0.89-0.25-1.91-0.38-3.07-0.39c-1.16-0.01-2.18,0.11-3.07,0.35
					c-0.89,0.24-1.62,0.58-2.2,1.03c-0.58,0.45-1.01,0.99-1.3,1.62c-0.29,0.63-0.43,1.33-0.43,2.08c0,0.83,0,1.24,0,2.07
					c0,0.75,0.15,1.45,0.44,2.09c0.29,0.64,0.73,1.18,1.31,1.64c0.58,0.45,1.31,0.81,2.2,1.05
					C265.05,82.53,266.07,82.65,267.23,82.65z"/>
				<path class="st0" d="M290.95,87.58c0.01-7.38,0.01-14.76,0.02-22.14c7.39-0.06,14.77-0.17,22.16-0.34
					c1.68-0.04,3.21,0.16,4.59,0.59c1.38,0.44,2.49,1.06,3.33,1.87c0.84,0.81,1.25,1.77,1.25,2.87c0,1.1-0.27,2.01-0.78,2.72
					c-0.52,0.71-1.2,1.28-2.04,1.7c-0.84,0.42-1.76,0.73-2.76,0.94c0,0.05,0,0.08,0,0.13c1.16,0.16,2.21,0.45,3.16,0.86
					c0.95,0.42,1.71,1,2.29,1.77c0.58,0.76,0.86,1.75,0.86,2.96c0,1.21-0.44,2.27-1.32,3.18c-0.87,0.91-2.03,1.61-3.48,2.12
					c-1.45,0.51-3.08,0.76-4.88,0.76C305.89,87.58,298.42,87.58,290.95,87.58z M301.65,73.99c2.94-0.03,4.41-0.04,7.35-0.08
					c0.52-0.01,0.95-0.09,1.31-0.26c0.35-0.17,0.64-0.4,0.85-0.71c0.21-0.31,0.32-0.69,0.32-1.15c0-0.48-0.24-0.88-0.72-1.21
					c-0.48-0.33-1.06-0.49-1.74-0.48c-2.94,0.05-4.41,0.07-7.35,0.1C301.65,71.72,301.65,72.47,301.65,73.99z M301.63,82.4
					c3.25-0.01,4.87-0.02,8.12-0.04c0.74,0,1.34-0.18,1.79-0.53c0.45-0.35,0.68-0.87,0.68-1.57c0-0.33-0.1-0.62-0.31-0.89
					c-0.21-0.27-0.5-0.48-0.87-0.63c-0.37-0.15-0.8-0.22-1.28-0.22c-3.25,0.03-4.87,0.04-8.12,0.06
					C301.63,80.11,301.63,80.87,301.63,82.4z"/>
				<path class="st0" d="M337.5,87.56c0.02-3.6,0.02-5.41,0.04-9.01c-4.34-4.62-8.72-9.2-13.14-13.75
					c4.91-0.15,7.37-0.23,12.28-0.42c2.54,2.99,3.81,4.49,6.35,7.54c0.08,0,0.12,0,0.19-0.01c2.57-3.19,3.85-4.81,6.42-8.09
					c4.66-0.22,6.99-0.34,11.65-0.6c-4.31,5.09-8.66,10.14-13.07,15.14c-0.02,3.67-0.03,5.51-0.04,9.18
					C343.9,87.56,341.77,87.56,337.5,87.56z"/>
				<path class="st0" d="M373.27,87.53c0.04-8.3,0.09-16.6,0.13-24.9c4.27-0.27,6.41-0.41,10.68-0.7
					c-0.04,8.53-0.09,17.06-0.13,25.59C379.67,87.52,377.53,87.53,373.27,87.53z"/>
				<path class="st0" d="M391.08,87.51c0.04-8.7,0.09-17.4,0.13-26.09c3.63-0.27,5.45-0.41,9.08-0.7c3.47,2.96,6.91,5.98,10.28,9.06
					c0.29,0.25,0.67,0.62,1.15,1.1c0.48,0.49,0.97,0.98,1.46,1.48c0.5,0.5,0.87,0.91,1.13,1.22c0.1-0.04,0.14-0.06,0.24-0.09
					c-0.03-0.76-0.04-1.51-0.04-2.25c0-0.75,0.01-1.31,0.01-1.69c0.02-4.02,0.03-6.03,0.04-10.04c3.88-0.35,5.82-0.53,9.69-0.9
					c-0.04,9.62-0.07,19.25-0.11,28.87c-3.61,0.01-5.42,0.01-9.03,0.01c-3.82-3.65-7.68-7.24-11.58-10.79
					c-0.55-0.51-1.01-0.97-1.39-1.38c-0.38-0.42-0.75-0.81-1.1-1.19c-0.1,0.04-0.15,0.05-0.24,0.09c0.03,0.49,0.04,0.99,0.04,1.48
					c0,0.49,0,0.86-0.01,1.09c-0.02,4.29-0.03,6.44-0.05,10.73C396.91,87.5,394.96,87.51,391.08,87.51z"/>
				<path class="st0" d="M446,87.97c-3.48,0-6.45-0.49-8.91-1.43c-2.46-0.94-4.35-2.33-5.66-4.17c-1.31-1.83-1.97-4.09-1.96-6.82
					c0.02-5.89,0.04-11.77,0.06-17.66c4.26-0.43,6.39-0.66,10.65-1.12c-0.01,6.06-0.03,12.12-0.04,18.18c0,1.63,0.48,2.97,1.44,4.01
					c0.96,1.04,2.43,1.55,4.39,1.5c1.96-0.05,3.43-0.64,4.42-1.78c0.98-1.14,1.47-2.57,1.48-4.28c0.01-6.32,0.01-12.64,0.02-18.95
					c4.25-0.5,6.38-0.75,10.63-1.28c0,6.62,0,13.23,0,19.85c0,3.06-0.65,5.66-1.95,7.75c-1.3,2.09-3.19,3.65-5.65,4.68
					C452.44,87.47,449.47,87.97,446,87.97z"/>
			</g>
		</g>
	</g>
</g>
<g id="_x2A_Labels">
</g>
<g id="_x2A__x2A_WIP_x2A__x2A_">
</g>
</svg>
