<svg xmlns="http://www.w3.org/2000/svg" viewBox="0 0 36.94 36.94"><defs><style>.cls-1{fill:#debf41;}.cls-2{fill:#ba7c00;}.cls-3{fill:#d09700;}.cls-4{fill:#d7ac00;}.cls-5{fill:#e3ca4c;}.cls-6{fill:#3e3614;}.cls-7{fill:#fff;}</style></defs><g id="Layer_2" data-name="Layer 2"><g id="Desktop_-_Dashboard" data-name="Desktop - Dashboard"><rect class="cls-1" x="9.58" y="26" width="1.37" height="1.37"/><rect class="cls-1" x="8.21" y="27.37" width="1.36" height="1.37"/><rect class="cls-1" x="8.21" y="26" width="1.36" height="1.37"/><rect class="cls-1" x="8.21" y="24.63" width="1.36" height="1.37"/><rect class="cls-1" x="6.84" y="28.74" width="1.37" height="1.37"/><rect class="cls-1" x="6.84" y="27.37" width="1.37" height="1.37"/><rect class="cls-1" x="6.84" y="26" width="1.37" height="1.37"/><rect class="cls-1" x="5.48" y="28.74" width="1.37" height="1.37"/><rect class="cls-1" x="5.48" y="27.37" width="1.37" height="1.37"/><polygon class="cls-2" points="28.74 16.42 28.74 17.79 28.74 19.16 28.74 20.53 28.74 21.89 30.11 21.89 30.11 20.53 30.11 19.16 30.11 17.79 30.11 16.42 30.11 15.05 28.74 15.05 28.74 16.42"/><polygon class="cls-2" points="27.37 23.26 27.37 24.63 28.74 24.63 28.74 23.26 28.74 21.89 27.37 21.89 27.37 23.26"/><polygon class="cls-2" points="27.37 15.05 28.74 15.05 28.74 13.68 28.74 12.31 27.37 12.31 27.37 13.68 27.37 15.05"/><rect class="cls-2" x="26" y="24.63" width="1.37" height="1.37"/><rect class="cls-2" x="26" y="10.95" width="1.37" height="1.37"/><rect class="cls-2" x="24.63" y="26" width="1.37" height="1.37"/><rect class="cls-2" x="24.63" y="9.58" width="1.37" height="1.36"/><polygon class="cls-2" points="21.89 27.37 21.89 28.74 23.26 28.74 24.63 28.74 24.63 27.37 23.26 27.37 21.89 27.37"/><polygon class="cls-2" points="23.26 9.58 24.63 9.58 24.63 8.21 23.26 8.21 21.89 8.21 21.89 9.58 23.26 9.58"/><polygon class="cls-2" points="19.16 28.74 17.79 28.74 16.42 28.74 15.05 28.74 15.05 30.11 16.42 30.11 17.79 30.11 19.16 30.11 20.52 30.11 21.89 30.11 21.89 28.74 20.52 28.74 19.16 28.74"/><polygon class="cls-2" points="17.79 8.21 19.16 8.21 20.52 8.21 21.89 8.21 21.89 6.84 20.52 6.84 19.16 6.84 17.79 6.84 16.42 6.84 15.05 6.84 15.05 8.21 16.42 8.21 17.79 8.21"/><polygon class="cls-2" points="13.68 27.37 12.31 27.37 12.31 28.74 13.68 28.74 15.05 28.74 15.05 27.37 13.68 27.37"/><polygon class="cls-2" points="15.05 9.58 15.05 8.21 13.68 8.21 12.31 8.21 12.31 9.58 13.68 9.58 15.05 9.58"/><rect class="cls-2" x="10.95" y="26" width="1.37" height="1.37"/><rect class="cls-2" x="10.95" y="9.58" width="1.37" height="1.36"/><rect class="cls-2" x="9.58" y="24.63" width="1.37" height="1.37"/><rect class="cls-2" x="9.58" y="10.95" width="1.37" height="1.37"/><polygon class="cls-2" points="9.58 21.89 8.21 21.89 8.21 23.26 8.21 24.63 9.58 24.63 9.58 23.26 9.58 21.89"/><polygon class="cls-2" points="9.58 13.68 9.58 12.31 8.21 12.31 8.21 13.68 8.21 15.05 9.58 15.05 9.58 13.68"/><polygon class="cls-2" points="8.21 19.16 8.21 17.79 8.21 16.42 8.21 15.05 6.84 15.05 6.84 16.42 6.84 17.79 6.84 19.16 6.84 20.53 6.84 21.89 8.21 21.89 8.21 20.53 8.21 19.16"/><polygon class="cls-3" points="32.84 24.63 32.84 26 34.21 26 34.21 24.63 34.21 23.26 32.84 23.26 32.84 24.63"/><polygon class="cls-3" points="34.21 12.31 34.21 10.95 32.84 10.95 32.84 12.31 32.84 13.68 32.84 15.05 34.21 15.05 34.21 16.42 34.21 17.79 34.21 19.16 34.21 20.53 34.21 21.89 34.21 23.26 35.58 23.26 35.58 21.89 35.58 20.53 35.58 19.16 35.58 17.79 35.58 16.42 35.58 15.05 35.58 13.68 34.21 13.68 34.21 12.31"/><polygon class="cls-3" points="31.47 27.37 31.47 28.74 32.84 28.74 32.84 27.37 32.84 26 31.47 26 31.47 27.37"/><polygon class="cls-3" points="32.84 8.21 31.47 8.21 31.47 9.58 31.47 10.95 32.84 10.95 32.84 9.58 32.84 8.21"/><rect class="cls-3" x="30.11" y="28.74" width="1.37" height="1.37"/><rect class="cls-3" x="30.11" y="6.84" width="1.37" height="1.37"/><rect class="cls-3" x="28.74" y="30.11" width="1.37" height="1.37"/><rect class="cls-3" x="28.74" y="5.48" width="1.37" height="1.37"/><polygon class="cls-3" points="27.37 4.11 26 4.11 26 5.48 27.37 5.48 28.74 5.48 28.74 4.11 27.37 4.11"/><polygon class="cls-3" points="26 31.47 26 32.84 27.37 32.84 28.74 32.84 28.74 31.47 27.37 31.47 26 31.47"/><polygon class="cls-3" points="24.63 2.74 23.26 2.74 23.26 4.11 24.63 4.11 26 4.11 26 2.74 24.63 2.74"/><polygon class="cls-3" points="23.26 32.84 23.26 34.21 24.63 34.21 26 34.21 26 32.84 24.63 32.84 23.26 32.84"/><polygon class="cls-3" points="20.52 34.21 19.16 34.21 17.79 34.21 16.42 34.21 15.05 34.21 13.68 34.21 13.68 35.58 15.05 35.58 16.42 35.58 17.79 35.58 19.16 35.58 20.52 35.58 21.89 35.58 23.26 35.58 23.26 34.21 21.89 34.21 20.52 34.21"/><rect class="cls-3" x="19.16" y="2.74" width="1.36" height="1.37"/><polygon class="cls-3" points="15.05 8.21 15.05 9.58 16.42 9.58 17.79 9.58 19.16 9.58 19.16 10.95 20.52 10.95 20.52 9.58 21.89 9.58 21.89 8.21 20.52 8.21 19.16 8.21 17.79 8.21 16.42 8.21 15.05 8.21"/><rect class="cls-3" x="15.05" y="2.74" width="1.37" height="1.37"/><rect class="cls-3" x="13.68" y="4.11" width="1.37" height="1.37"/><polygon class="cls-3" points="12.31 32.84 10.95 32.84 10.95 34.21 12.31 34.21 13.68 34.21 13.68 32.84 12.31 32.84"/><polygon class="cls-3" points="12.31 9.58 12.31 10.95 13.68 10.95 15.05 10.95 15.05 9.58 13.68 9.58 12.31 9.58"/><rect class="cls-3" x="10.95" y="10.95" width="1.37" height="1.37"/><polygon class="cls-3" points="12.31 8.21 12.31 6.84 13.68 6.84 13.68 5.48 12.31 5.48 10.95 5.48 10.95 6.84 9.58 6.84 9.58 8.21 10.95 8.21 12.31 8.21"/><polygon class="cls-3" points="9.58 31.47 8.21 31.47 8.21 32.84 9.58 32.84 10.95 32.84 10.95 31.47 9.58 31.47"/><polygon class="cls-3" points="9.58 13.68 9.58 15.05 10.95 15.05 10.95 13.68 10.95 12.31 9.58 12.31 9.58 13.68"/><polygon class="cls-3" points="8.21 16.42 8.21 17.79 8.21 19.16 8.21 20.53 8.21 21.89 9.58 21.89 9.58 20.53 9.58 19.16 9.58 17.79 9.58 16.42 9.58 15.05 8.21 15.05 8.21 16.42"/><rect class="cls-3" x="8.21" y="8.21" width="1.36" height="1.37"/><polygon class="cls-3" points="8.21 10.95 8.21 9.58 6.84 9.58 6.84 10.95 5.48 10.95 5.48 12.31 5.48 13.68 6.84 13.68 6.84 12.31 8.21 12.31 8.21 10.95"/><rect class="cls-3" x="4.11" y="13.68" width="1.37" height="1.37"/><rect class="cls-3" x="2.74" y="15.05" width="1.37" height="1.37"/><rect class="cls-4" x="32.84" y="21.89" width="1.37" height="1.37"/><polygon class="cls-4" points="32.84 16.42 31.47 16.42 31.47 17.79 30.11 17.79 30.11 19.16 30.11 20.53 30.11 21.89 28.74 21.89 28.74 23.26 28.74 24.63 30.11 24.63 30.11 23.26 31.47 23.26 31.47 21.89 32.84 21.89 32.84 20.53 34.21 20.53 34.21 19.16 34.21 17.79 34.21 16.42 34.21 15.05 32.84 15.05 32.84 16.42"/><polygon class="cls-4" points="31.47 24.63 30.11 24.63 30.11 26 28.74 26 28.74 27.37 27.37 27.37 27.37 28.74 26 28.74 26 30.11 24.63 30.11 24.63 31.47 23.26 31.47 23.26 32.84 24.63 32.84 26 32.84 26 31.47 27.37 31.47 28.74 31.47 28.74 30.11 30.11 30.11 30.11 28.74 31.47 28.74 31.47 27.37 31.47 26 32.84 26 32.84 24.63 32.84 23.26 31.47 23.26 31.47 24.63"/><polygon class="cls-4" points="28.74 13.68 28.74 15.05 30.11 15.05 30.11 16.42 31.47 16.42 31.47 15.05 32.84 15.05 32.84 13.68 32.84 12.31 32.84 10.95 31.47 10.95 31.47 9.58 31.47 8.21 30.11 8.21 28.74 8.21 28.74 9.58 27.37 9.58 27.37 10.95 27.37 12.31 28.74 12.31 28.74 13.68"/><rect class="cls-4" x="27.37" y="24.63" width="1.37" height="1.37"/><rect class="cls-4" x="27.37" y="20.53" width="1.37" height="1.36"/><rect class="cls-4" x="26" y="26" width="1.37" height="1.37"/><rect class="cls-4" x="24.63" y="27.37" width="1.37" height="1.37"/><rect class="cls-4" x="21.89" y="32.84" width="1.37" height="1.36"/><polygon class="cls-4" points="23.26 31.47 23.26 30.11 24.63 30.11 24.63 28.74 23.26 28.74 21.89 28.74 21.89 30.11 20.52 30.11 19.16 30.11 17.79 30.11 17.79 31.47 16.42 31.47 16.42 32.84 15.05 32.84 15.05 34.21 16.42 34.21 17.79 34.21 19.16 34.21 20.52 34.21 20.52 32.84 21.89 32.84 21.89 31.47 23.26 31.47"/><polygon class="cls-4" points="23.26 27.37 24.63 27.37 24.63 26 26 26 26 24.63 27.37 24.63 27.37 23.26 27.37 21.89 26 21.89 26 23.26 24.63 23.26 24.63 24.63 23.26 24.63 23.26 26 21.89 26 21.89 27.37 23.26 27.37"/><rect class="cls-4" x="20.52" y="27.37" width="1.37" height="1.37"/><polygon class="cls-4" points="17.79 9.58 16.42 9.58 15.05 9.58 15.05 10.95 13.68 10.95 12.31 10.95 12.31 12.31 10.95 12.31 10.95 13.68 10.95 15.05 9.58 15.05 9.58 16.42 9.58 17.79 9.58 19.16 9.58 20.53 9.58 21.89 9.58 23.26 10.95 23.26 10.95 21.89 12.31 21.89 12.31 20.53 13.68 20.53 13.68 19.16 15.05 19.16 15.05 17.79 16.42 17.79 16.42 16.42 17.79 16.42 17.79 15.05 19.16 15.05 19.16 13.68 20.52 13.68 20.52 12.31 21.89 12.31 21.89 10.95 23.26 10.95 23.26 9.58 21.89 9.58 20.52 9.58 20.52 10.95 19.16 10.95 19.16 9.58 17.79 9.58"/><polygon class="cls-4" points="16.42 31.47 16.42 30.11 15.05 30.11 15.05 28.74 13.68 28.74 12.31 28.74 12.31 27.37 10.95 27.37 9.58 27.37 9.58 28.74 8.21 28.74 8.21 30.11 8.21 31.47 9.58 31.47 10.95 31.47 10.95 32.84 12.31 32.84 13.68 32.84 15.05 32.84 15.05 31.47 16.42 31.47"/><polygon class="cls-4" points="15.05 6.84 16.42 6.84 17.79 6.84 19.16 6.84 20.52 6.84 21.89 6.84 21.89 8.21 23.26 8.21 24.63 8.21 26 8.21 26 6.84 27.37 6.84 27.37 5.48 26 5.48 26 4.11 24.63 4.11 23.26 4.11 23.26 2.74 21.89 2.74 20.52 2.74 20.52 4.11 19.16 4.11 19.16 2.74 17.79 2.74 17.79 4.11 16.42 4.11 16.42 5.48 15.05 5.48 15.05 6.84"/><polygon class="cls-4" points="15.05 27.37 15.05 28.74 16.42 28.74 17.79 28.74 19.16 28.74 19.16 27.37 20.52 27.37 20.52 26 21.89 26 21.89 24.63 23.26 24.63 23.26 23.26 24.63 23.26 24.63 21.89 26 21.89 26 20.53 27.37 20.53 27.37 19.16 28.74 19.16 28.74 17.79 28.74 16.42 28.74 15.05 27.37 15.05 27.37 13.68 27.37 12.31 26 12.31 24.63 12.31 24.63 13.68 23.26 13.68 23.26 15.05 21.89 15.05 21.89 16.42 20.52 16.42 20.52 17.79 19.16 17.79 19.16 19.16 17.79 19.16 17.79 20.53 16.42 20.53 16.42 21.89 15.05 21.89 15.05 23.26 13.68 23.26 13.68 24.63 12.31 24.63 12.31 26 12.31 27.37 13.68 27.37 15.05 27.37"/><rect class="cls-4" x="13.68" y="6.84" width="1.37" height="1.37"/><rect class="cls-4" x="13.68" y="2.74" width="1.37" height="1.37"/><polygon class="cls-4" points="13.68 5.48 13.68 4.11 12.31 4.11 10.95 4.11 10.95 5.48 12.31 5.48 13.68 5.48"/><rect class="cls-4" x="9.58" y="8.21" width="1.37" height="1.37"/><rect class="cls-4" x="9.58" y="5.48" width="1.37" height="1.37"/><rect class="cls-4" x="8.21" y="9.58" width="1.36" height="1.36"/><rect class="cls-4" x="8.21" y="6.84" width="1.36" height="1.37"/><polygon class="cls-4" points="8.21 24.63 8.21 23.26 8.21 21.89 6.84 21.89 6.84 20.53 6.84 19.16 6.84 17.79 6.84 16.42 6.84 15.05 5.48 15.05 5.48 16.42 4.11 16.42 4.11 17.79 2.74 17.79 2.74 19.16 2.74 20.53 2.74 21.89 2.74 23.26 4.11 23.26 4.11 24.63 4.11 26 5.48 26 5.48 27.37 6.84 27.37 6.84 26 8.21 26 8.21 24.63"/><rect class="cls-4" x="6.84" y="13.68" width="1.37" height="1.37"/><rect class="cls-4" x="6.84" y="8.21" width="1.37" height="1.37"/><rect class="cls-4" x="5.48" y="9.58" width="1.37" height="1.36"/><polygon class="cls-4" points="5.48 12.31 5.48 10.95 4.11 10.95 4.11 12.31 4.11 13.68 5.48 13.68 5.48 12.31"/><rect class="cls-4" x="2.74" y="13.68" width="1.37" height="1.37"/><rect class="cls-5" x="32.84" y="20.53" width="1.37" height="1.36"/><rect class="cls-5" x="31.47" y="21.89" width="1.36" height="1.37"/><rect class="cls-5" x="31.47" y="15.05" width="1.36" height="1.37"/><rect class="cls-5" x="30.11" y="23.26" width="1.37" height="1.37"/><rect class="cls-5" x="30.11" y="16.42" width="1.37" height="1.37"/><rect class="cls-5" x="28.74" y="24.63" width="1.37" height="1.37"/><rect class="cls-5" x="27.37" y="26" width="1.37" height="1.37"/><rect class="cls-5" x="27.37" y="19.16" width="1.37" height="1.37"/><rect class="cls-5" x="26" y="27.37" width="1.37" height="1.37"/><rect class="cls-5" x="26" y="20.53" width="1.37" height="1.36"/><polygon class="cls-5" points="26 10.95 27.37 10.95 27.37 9.58 28.74 9.58 28.74 8.21 30.11 8.21 30.11 6.84 28.74 6.84 28.74 5.48 27.37 5.48 27.37 6.84 26 6.84 26 8.21 24.63 8.21 24.63 9.58 26 9.58 26 10.95"/><rect class="cls-5" x="24.63" y="28.74" width="1.37" height="1.37"/><rect class="cls-5" x="24.63" y="21.89" width="1.37" height="1.37"/><rect class="cls-5" x="23.26" y="30.11" width="1.37" height="1.37"/><rect class="cls-5" x="23.26" y="23.26" width="1.37" height="1.37"/><rect class="cls-5" x="21.89" y="31.47" width="1.37" height="1.37"/><rect class="cls-5" x="21.89" y="24.63" width="1.37" height="1.37"/><rect class="cls-5" x="20.52" y="32.84" width="1.37" height="1.36"/><rect class="cls-5" x="20.52" y="26" width="1.37" height="1.37"/><rect class="cls-5" x="19.16" y="27.37" width="1.36" height="1.37"/><polygon class="cls-5" points="19.16 17.79 20.52 17.79 20.52 16.42 21.89 16.42 21.89 15.05 23.26 15.05 23.26 13.68 24.63 13.68 24.63 12.31 26 12.31 26 10.95 24.63 10.95 24.63 9.58 23.26 9.58 23.26 10.95 21.89 10.95 21.89 12.31 20.52 12.31 20.52 13.68 19.16 13.68 19.16 15.05 17.79 15.05 17.79 16.42 16.42 16.42 16.42 17.79 15.05 17.79 15.05 19.16 13.68 19.16 13.68 20.53 12.31 20.53 12.31 21.89 10.95 21.89 10.95 23.26 9.58 23.26 9.58 24.63 10.95 24.63 10.95 26 12.31 26 12.31 24.63 13.68 24.63 13.68 23.26 15.05 23.26 15.05 21.89 16.42 21.89 16.42 20.53 17.79 20.53 17.79 19.16 19.16 19.16 19.16 17.79"/><rect class="cls-5" x="16.42" y="30.11" width="1.37" height="1.37"/><rect class="cls-5" x="15.05" y="31.47" width="1.37" height="1.37"/><rect class="cls-5" x="15.05" y="4.11" width="1.37" height="1.37"/><polygon class="cls-5" points="16.42 2.74 16.42 4.11 17.79 4.11 17.79 2.74 19.16 2.74 20.52 2.74 21.89 2.74 23.26 2.74 23.26 1.37 21.89 1.37 20.52 1.37 19.16 1.37 17.79 1.37 16.42 1.37 15.05 1.37 13.68 1.37 13.68 2.74 15.05 2.74 16.42 2.74"/><rect class="cls-5" x="13.68" y="32.84" width="1.37" height="1.36"/><rect class="cls-5" x="13.68" y="5.48" width="1.37" height="1.37"/><rect class="cls-5" x="12.31" y="6.84" width="1.37" height="1.37"/><polygon class="cls-5" points="13.68 4.11 13.68 2.74 12.31 2.74 10.95 2.74 10.95 4.11 12.31 4.11 13.68 4.11"/><rect class="cls-5" x="10.95" y="8.21" width="1.37" height="1.37"/><rect class="cls-5" x="9.58" y="9.58" width="1.37" height="1.36"/><rect class="cls-5" x="8.21" y="10.95" width="1.36" height="1.37"/><rect class="cls-5" x="6.84" y="30.11" width="1.37" height="1.37"/><rect class="cls-5" x="6.84" y="12.31" width="1.37" height="1.37"/><rect class="cls-5" x="5.48" y="13.68" width="1.37" height="1.37"/><polygon class="cls-5" points="4.11 28.74 5.48 28.74 5.48 27.37 5.48 26 4.11 26 4.11 27.37 4.11 28.74"/><rect class="cls-5" x="4.11" y="15.05" width="1.37" height="1.37"/><polygon class="cls-5" points="5.48 9.58 6.84 9.58 6.84 8.21 8.21 8.21 8.21 6.84 9.58 6.84 9.58 5.48 10.95 5.48 10.95 4.11 9.58 4.11 8.21 4.11 8.21 5.48 6.84 5.48 6.84 6.84 5.48 6.84 5.48 8.21 4.11 8.21 4.11 9.58 4.11 10.95 5.48 10.95 5.48 9.58"/><polygon class="cls-5" points="2.74 26 4.11 26 4.11 24.63 4.11 23.26 2.74 23.26 2.74 24.63 2.74 26"/><polygon class="cls-5" points="4.11 12.31 4.11 10.95 2.74 10.95 2.74 12.31 2.74 13.68 4.11 13.68 4.11 12.31"/><polygon class="cls-5" points="2.74 15.05 2.74 13.68 1.37 13.68 1.37 15.05 1.37 16.42 1.37 17.79 1.37 19.16 1.37 20.53 1.37 21.89 1.37 23.26 2.74 23.26 2.74 21.89 2.74 20.53 2.74 19.16 2.74 17.79 4.11 17.79 4.11 16.42 2.74 16.42 2.74 15.05"/><polygon class="cls-6" points="35.58 15.05 35.58 16.42 35.58 17.79 35.58 19.16 35.58 20.53 35.58 21.89 35.58 23.26 36.94 23.26 36.94 21.89 36.94 20.53 36.94 19.16 36.94 17.79 36.94 16.42 36.94 15.05 36.94 13.68 35.58 13.68 35.58 15.05"/><polygon class="cls-6" points="34.21 24.63 34.21 26 35.58 26 35.58 24.63 35.58 23.26 34.21 23.26 34.21 24.63"/><polygon class="cls-6" points="34.21 13.68 35.58 13.68 35.58 12.31 35.58 10.95 34.21 10.95 34.21 12.31 34.21 13.68"/><polygon class="cls-6" points="32.84 27.37 32.84 28.74 34.21 28.74 34.21 27.37 34.21 26 32.84 26 32.84 27.37"/><polygon class="cls-6" points="32.84 10.95 34.21 10.95 34.21 9.58 34.21 8.21 32.84 8.21 32.84 9.58 32.84 10.95"/><rect class="cls-6" x="31.47" y="28.74" width="1.36" height="1.37"/><rect class="cls-6" x="31.47" y="6.84" width="1.36" height="1.37"/><rect class="cls-6" x="30.11" y="30.11" width="1.37" height="1.37"/><rect class="cls-6" x="30.11" y="5.48" width="1.37" height="1.37"/><rect class="cls-6" x="28.74" y="31.47" width="1.37" height="1.37"/><rect class="cls-6" x="28.74" y="4.11" width="1.37" height="1.37"/><polygon class="cls-6" points="26 32.84 26 34.21 27.37 34.21 28.74 34.21 28.74 32.84 27.37 32.84 26 32.84"/><polygon class="cls-6" points="27.37 4.11 28.74 4.11 28.74 2.74 27.37 2.74 26 2.74 26 4.11 27.37 4.11"/><polygon class="cls-6" points="23.26 34.21 23.26 35.58 24.63 35.58 26 35.58 26 34.21 24.63 34.21 23.26 34.21"/><polygon class="cls-6" points="24.63 2.74 26 2.74 26 1.37 24.63 1.37 23.26 1.37 23.26 2.74 24.63 2.74"/><polygon class="cls-6" points="20.52 35.58 19.16 35.58 17.79 35.58 16.42 35.58 15.05 35.58 13.68 35.58 13.68 36.94 15.05 36.94 16.42 36.94 17.79 36.94 19.16 36.94 20.52 36.94 21.89 36.94 23.26 36.94 23.26 35.58 21.89 35.58 20.52 35.58"/><polygon class="cls-6" points="16.42 1.37 17.79 1.37 19.16 1.37 20.52 1.37 21.89 1.37 23.26 1.37 23.26 0 21.89 0 20.52 0 19.16 0 17.79 0 16.42 0 15.05 0 13.68 0 13.68 1.37 15.05 1.37 16.42 1.37"/><polygon class="cls-6" points="12.31 34.21 10.95 34.21 10.95 35.58 12.31 35.58 13.68 35.58 13.68 34.21 12.31 34.21"/><polygon class="cls-6" points="13.68 2.74 13.68 1.37 12.31 1.37 10.95 1.37 10.95 2.74 12.31 2.74 13.68 2.74"/><polygon class="cls-6" points="9.58 32.84 8.21 32.84 8.21 34.21 9.58 34.21 10.95 34.21 10.95 32.84 9.58 32.84"/><polygon class="cls-6" points="10.95 4.11 10.95 2.74 9.58 2.74 8.21 2.74 8.21 4.11 9.58 4.11 10.95 4.11"/><rect class="cls-6" x="6.84" y="31.47" width="1.37" height="1.37"/><rect class="cls-6" x="6.84" y="4.11" width="1.37" height="1.37"/><rect class="cls-6" x="5.48" y="30.11" width="1.37" height="1.37"/><rect class="cls-6" x="5.48" y="5.48" width="1.37" height="1.37"/><rect class="cls-6" x="4.11" y="28.74" width="1.37" height="1.37"/><rect class="cls-6" x="4.11" y="6.84" width="1.37" height="1.37"/><polygon class="cls-6" points="4.11 26 2.74 26 2.74 27.37 2.74 28.74 4.11 28.74 4.11 27.37 4.11 26"/><polygon class="cls-6" points="4.11 9.58 4.11 8.21 2.74 8.21 2.74 9.58 2.74 10.95 4.11 10.95 4.11 9.58"/><polygon class="cls-6" points="2.74 23.26 1.37 23.26 1.37 24.63 1.37 26 2.74 26 2.74 24.63 2.74 23.26"/><polygon class="cls-6" points="2.74 12.31 2.74 10.95 1.37 10.95 1.37 12.31 1.37 13.68 2.74 13.68 2.74 12.31"/><polygon class="cls-6" points="1.37 20.53 1.37 19.16 1.37 17.79 1.37 16.42 1.37 15.05 1.37 13.68 0 13.68 0 15.05 0 16.42 0 17.79 0 19.16 0 20.53 0 21.89 0 23.26 1.37 23.26 1.37 21.89 1.37 20.53"/><path class="cls-7" d="M15.6,25.78l-1.87-2.26,2.06-3.61-3.64-1.52,4-6.23a17.35,17.35,0,0,1,1.45,2.89l-1.78,2.5,2.64,1.37Zm5.89.81L20,24.74V12.56l1.36-1.5.25.26,1.16,1.24L22.53,25Z"/></g></g></svg>