<svg xmlns="http://www.w3.org/2000/svg" viewBox="0 0 368.76 46.84"><defs><style>.cls-1{fill:#fff;}</style></defs><g id="Layer_2" data-name="Layer 2"><g id="Layer_1-2" data-name="Layer 1"><g id="_WIP_" data-name="**WIP**"><path class="cls-1" d="M36,4a11.26,11.26,0,0,1,5.7,10v.76L27.8,14.57v-.26a4.16,4.16,0,0,0-1.46-3.22,6.8,6.8,0,0,0-4.48-1.37,9.7,9.7,0,0,0-4.53.75c-1.06.54-1.59,1.23-1.59,2,0,1.17.71,2.05,2.14,2.64A44.71,44.71,0,0,0,24.79,17,76.15,76.15,0,0,1,34,19.4a16.1,16.1,0,0,1,6.3,4,10.55,10.55,0,0,1,2.83,7.47c.1,5.31-1.75,9.42-5.41,12.05S28.89,47,22.92,46.83c-5.55-.17-11.7-.55-16.77-3.61Q.15,39.61,0,30.43l14,0c0,2.31.66,3.86,1.87,4.64a10.64,10.64,0,0,0,5.64,1.17,15.27,15.27,0,0,0,4.65-.6A2.36,2.36,0,0,0,28,33.21c0-1.11-.71-1.94-2.07-2.5a44.47,44.47,0,0,0-6.69-1.77,73.85,73.85,0,0,1-9.35-2.52,16,16,0,0,1-6.49-4.33A11.61,11.61,0,0,1,.58,13.91c0-5,2.06-8.7,6-10.9s9-3.12,15-2.87S32.24,1.68,36,4Z"/><path class="cls-1" d="M81.6,46c0-5.76,0-11.53-.1-17.29l-16.28,0c.06,5.77.11,11.54.11,17.32H50.54c-.07-14.7-.36-29.39,0-44.08l14.79.46c-.16,5.73-.16,8.7-.15,15l16.29.12c0-6.24,0-9.16.12-14.7,5.92.15,8.87.22,14.79.34-.28,14.28,0,28.57,0,42.85Z"/><path class="cls-1" d="M137.45,3.86q9.17.11,18.34.17a215.89,215.89,0,0,0-16.58,15.72C145,28.4,150.61,37.18,156.14,46H138.67q-4.77-8.35-9.62-16.66c-3.2,2.53-4.81,3.82-8,6.4,0,4.07,0,6.14,0,10.26H106.28c0-14.21-.27-28.43,0-42.65L121,3.62C121,9.2,121,14.78,121,20.36,126.28,14.65,131.62,9,137.45,3.86Z"/><path class="cls-1" d="M201.06,8.17c5.2,3.6,6.17,9.94,6.5,15.39.36,6-1.84,12.85-6.51,17.19-4.88,4.54-11.92,6.07-18.4,6.07s-13.5-1.51-18.37-6c-4.68-4.35-6.85-11.24-6.49-17.23.33-5.45,1.27-11.82,6.47-15.42s12.16-4.59,18.39-4.59S195.79,4.53,201.06,8.17Zm-25.67,6.49a9.31,9.31,0,0,0-2.48,6.93v4A10.92,10.92,0,0,0,175.39,33c1.65,1.88,4.06,2.83,7.23,2.83s5.59-1,7.26-2.83a10.83,10.83,0,0,0,2.51-7.45v-4a9.28,9.28,0,0,0-2.51-6.93c-1.68-1.64-4.1-2.43-7.27-2.43S177.05,13,175.39,14.66Z"/><path class="cls-1" d="M256.86,7.74c4.85,3.59,6.57,9.93,6.51,15.72-.06,6.22-1.88,12.92-6.58,17.29-4.89,4.54-11.93,6.08-18.41,6.08s-13.5-1.51-18.36-6c-4.67-4.35-6.8-11.24-6.43-17.23.34-5.48,1.3-11.83,6.46-15.5s12.11-4.79,18.34-4.88S251.68,3.91,256.86,7.74Zm-25.64,6.82a9.52,9.52,0,0,0-2.49,7c0,1.58,0,2.38,0,4A10.94,10.94,0,0,0,231.17,33c1.64,1.88,4.05,2.83,7.22,2.83s5.59-1,7.27-2.83a10.93,10.93,0,0,0,2.54-7.5c0-1.63,0-2.43,0-4a9.42,9.42,0,0,0-2.5-7C244,12.81,241.61,12,238.44,12S232.87,12.88,231.22,14.56Z"/><path class="cls-1" d="M308.34,3.54A10.76,10.76,0,0,1,313,7a8.53,8.53,0,0,1,1.76,5.24c0,5.2-2.58,8.7-7.73,10.13v.26c5.84,1.26,8.73,4.93,8.67,11.2a11.55,11.55,0,0,1-1.83,6.35A12.13,12.13,0,0,1,309,44.48,14.86,14.86,0,0,1,302.28,46h-31c0-14.26.3-28.53,0-42.79q15.33-.33,30.65-.75A15.91,15.91,0,0,1,308.34,3.54ZM286.17,18.61l10.19-.06a3.38,3.38,0,0,0,2.45-1,3.27,3.27,0,0,0,1-2.4v-.61a3,3,0,0,0-1-2.26,3.42,3.42,0,0,0-2.42-.9l-10.19.12C286.18,14.28,286.18,15.69,286.17,18.61Zm-.11,16.76h11.25a3.22,3.22,0,0,0,2.45-1,3.59,3.59,0,0,0,1-2.54c0-.26,0-.4,0-.66a3.43,3.43,0,0,0-.95-2.51,3.22,3.22,0,0,0-2.44-1l-11.25,0C286.1,30.69,286.08,32.24,286.06,35.37Z"/><path class="cls-1" d="M350.72,46H335.93c0-5.93.08-11.85.16-17.78-5.87-9-11.88-17.75-18.38-26.28q8.51-.27,17-.59c3.17,4.64,6.19,9.42,9.06,14.25H344c3-4.92,5.85-9.9,8.6-14.94Q360.7.36,368.76,0C363.17,9.63,357,18.93,350.9,28.22,350.81,34.15,350.73,40.09,350.72,46Z"/></g></g></g></svg>