<?xml version="1.0" encoding="utf-8"?>
<!-- Generator: Adobe Illustrator 26.0.2, SVG Export Plug-In . SVG Version: 6.00 Build 0)  -->
<svg version="1.1" xmlns="http://www.w3.org/2000/svg" xmlns:xlink="http://www.w3.org/1999/xlink" x="0px" y="0px"
	 viewBox="0 0 391.52 142.13" style="enable-background:new 0 0 391.52 142.13;" xml:space="preserve">
<style type="text/css">
	.st0{opacity:0.2;fill:#DCFFA0;}
	.st1{opacity:0.5;fill:#DCFFA0;}
	.st2{opacity:0.4;fill:#DCFFA0;}
	.st3{fill:none;stroke:url(#SVGID_1_);stroke-width:1.8028;stroke-miterlimit:10;}
	.st4{fill:#00C1D2;}
	.st5{fill:none;stroke:#B49FFA;stroke-width:6;stroke-miterlimit:10;}
	.st6{fill:none;stroke:#CCFFEA;stroke-width:6;stroke-miterlimit:10;}
	.st7{fill:none;stroke:#FFFF68;stroke-width:6;stroke-miterlimit:10;}
	.st8{fill:#FFFFFF;}
	.st9{fill-rule:evenodd;clip-rule:evenodd;fill:#FFFFFF;}
	.st10{fill:none;stroke:#FFFFFF;stroke-width:6;stroke-miterlimit:10;}
	.st11{fill:#DEBF41;}
	.st12{fill:#BA7C00;}
	.st13{fill:#D09700;}
	.st14{fill:#D7AC00;}
	.st15{fill:#E3CA4C;}
	.st16{fill:#3E3614;}
	.st17{fill:#986600;}
	.st18{fill:#E9D781;}
	.st19{fill:#C200AA;}
	.st20{fill:#C8FF66;}
	.st21{fill:#FFFF00;}
	.st22{fill:none;stroke:#FFFF00;stroke-width:3;stroke-miterlimit:10;}
	.st23{fill:none;stroke:#C200AA;stroke-width:3;stroke-miterlimit:10;}
	.st24{fill:none;stroke:#C8FF66;stroke-width:3;stroke-miterlimit:10;}
	.st25{fill:none;stroke:#FFFFFF;stroke-miterlimit:10;}
	.st26{fill:none;stroke:#FFFFFF;stroke-width:3;stroke-miterlimit:10;}
	.st27{fill:none;stroke:url(#SVGID_00000060027116890718168740000001054323789885790123_);stroke-width:6;stroke-miterlimit:10;}
	.st28{fill:#FFFFFF;stroke:#C200AA;stroke-width:3;stroke-miterlimit:10;}
	.st29{fill:none;stroke:#000000;stroke-width:3;stroke-miterlimit:10;}
	.st30{fill:none;stroke:#FFFFFF;stroke-width:2.3542;stroke-miterlimit:10;}
	.st31{fill:#FFFFFF;stroke:#FFFFFF;stroke-width:2.3542;stroke-miterlimit:10;}
	.st32{fill:none;stroke:url(#SVGID_00000155846772893930181450000012447842860805319351_);stroke-width:6;stroke-miterlimit:10;}
	.st33{fill:#FFFFFF;stroke:#C8FF66;stroke-width:3;stroke-miterlimit:10;}
	.st34{fill:#D2FF8E;}
	.st35{fill:none;stroke:#D2FF8E;stroke-width:1.5459;stroke-miterlimit:10;}
	.st36{fill:none;stroke:url(#SVGID_00000137124432343893360960000012612257396683874230_);stroke-width:6;stroke-miterlimit:10;}
	.st37{fill:none;stroke:url(#SVGID_00000166661871443966677190000008563710650198427799_);stroke-width:6;stroke-miterlimit:10;}
	
		.st38{fill:none;stroke:url(#SVGID_00000099629609664669331290000002658508773830043061_);stroke-width:1.8028;stroke-miterlimit:10;}
	.st39{stroke:#FFFFFF;stroke-width:3;stroke-miterlimit:10;}
	.st40{enable-background:new    ;}
	.st41{clip-path:url(#SVGID_00000072264883351057171000000001508906517469617544_);}
	.st42{clip-path:url(#SVGID_00000140016858011812750770000005549592598362772632_);}
	.st43{fill:none;stroke:url(#SVGID_00000179641121206796235650000013951083482050460304_);stroke-width:6;stroke-miterlimit:10;}
	.st44{fill:none;stroke:url(#SVGID_00000085226118659868268080000015827957686123159465_);stroke-width:6;stroke-miterlimit:10;}
	
		.st45{fill:none;stroke:url(#SVGID_00000170973625485323849340000016480065633795340186_);stroke-width:1.8028;stroke-miterlimit:10;}
	.st46{clip-path:url(#SVGID_00000031897030323358888620000012680644328194752443_);}
	.st47{clip-path:url(#SVGID_00000151526498116652020010000016331984517857867184_);}
	.st48{fill:none;stroke:url(#SVGID_00000057845479895358796610000007696801283923961489_);stroke-width:6;stroke-miterlimit:10;}
	.st49{fill:none;stroke:url(#SVGID_00000115502616102999655690000007791890966288576155_);stroke-width:6;stroke-miterlimit:10;}
	
		.st50{fill:none;stroke:url(#SVGID_00000146496004801285228270000005056086529277016213_);stroke-width:1.8028;stroke-miterlimit:10;}
	.st51{clip-path:url(#SVGID_00000043432080464307938970000004550397232151814315_);}
	.st52{clip-path:url(#SVGID_00000116948816240920065670000017944119632112320189_);}
	.st53{opacity:0.15;fill-rule:evenodd;clip-rule:evenodd;}
	.st54{fill:none;stroke:#FFFFFF;stroke-width:4;stroke-miterlimit:10;}
	.st55{fill:none;stroke:#FFFFFF;stroke-width:2;stroke-miterlimit:10;}
	.st56{fill:none;stroke:url(#SVGID_00000036942078635012832890000012624072791384064914_);stroke-width:6;stroke-miterlimit:10;}
	.st57{fill:none;stroke:url(#SVGID_00000145060086854361381670000017692642351740759997_);stroke-width:6;stroke-miterlimit:10;}
	.st58{display:none;fill:#FFFFFF;}
	.st59{fill:none;stroke:url(#SVGID_00000095309622565538711190000005396563411791524758_);stroke-width:2;stroke-miterlimit:10;}
	.st60{fill:none;stroke:#FFFF00;stroke-width:2;stroke-miterlimit:10;}
	.st61{fill:none;stroke:#C200AA;stroke-width:2;stroke-miterlimit:10;}
	.st62{fill:none;stroke:#C8FF66;stroke-width:2;stroke-miterlimit:10;}
	.st63{opacity:0.5;}
	.st64{fill:none;stroke:#C8FF66;stroke-width:2.2361;stroke-miterlimit:10;}
	.st65{fill:none;stroke:#FFFFFF;stroke-width:1.5;stroke-miterlimit:10;}
	.st66{fill:none;stroke:url(#SVGID_00000058574564436991530530000001148132175854579364_);stroke-width:6;stroke-miterlimit:10;}
	.st67{fill:none;stroke:#C200AA;stroke-width:2.4282;stroke-miterlimit:10;}
	.st68{fill:#FFFFFF;stroke:#FFFFFF;stroke-width:3;stroke-miterlimit:10;}
	.st69{stroke:#FFFFFF;stroke-width:1.5;stroke-miterlimit:10;}
	.st70{fill:none;stroke:url(#SVGID_00000134954992322065094890000002466373131712308401_);stroke-width:6;stroke-miterlimit:10;}
	.st71{stroke:#C8FF66;stroke-width:2.4282;stroke-miterlimit:10;}
	.st72{fill:none;stroke:#C8FF66;stroke-width:2.4282;stroke-miterlimit:10;}
	.st73{fill:none;stroke:url(#SVGID_00000004515483753161450670000007322862036718209965_);stroke-width:6;stroke-miterlimit:10;}
	.st74{fill:none;stroke:url(#SVGID_00000103236458727687323960000001384890052985847949_);stroke-width:6;stroke-miterlimit:10;}
	.st75{clip-path:url(#SVGID_00000053526073594889812840000017451196861744008597_);}
	.st76{clip-path:url(#SVGID_00000183962780162057769060000006741336877158092977_);}
	.st77{fill:none;stroke:url(#SVGID_00000080197433745040168200000002751636704859971743_);stroke-width:2;stroke-miterlimit:10;}
	.st78{stroke:#FFFFFF;stroke-miterlimit:10;}
	.st79{fill:#FFFFFF;stroke:#000000;stroke-miterlimit:10;}
	.st80{fill:none;stroke:url(#SVGID_00000078739007886774816020000016483789025787441541_);stroke-width:2;stroke-miterlimit:10;}
	.st81{clip-path:url(#SVGID_00000126283202575937409620000001092151398143196857_);}
	.st82{clip-path:url(#SVGID_00000111908186042144952330000012205234580324940419_);}
	.st83{fill:none;stroke:url(#SVGID_00000129165095137942678920000001110349675173269380_);stroke-width:2;stroke-miterlimit:10;}
	.st84{clip-path:url(#SVGID_00000116204558279923067940000000750208830004561802_);}
	.st85{clip-path:url(#SVGID_00000041293242416811797680000013980956613704179082_);}
	.st86{fill:none;stroke:url(#SVGID_00000115482136478935339210000012137864441734805130_);stroke-width:6;stroke-miterlimit:10;}
	.st87{fill:none;stroke:url(#SVGID_00000181776006269441266280000001549491660148040620_);stroke-width:6;stroke-miterlimit:10;}
	.st88{fill:url(#SVGID_00000075861133771431715490000008932718335905275805_);}
	.st89{fill:url(#SVGID_00000179603801993388066220000006454171860305663652_);}
	.st90{fill:none;stroke:url(#SVGID_00000028299442227416971090000000462108857336282038_);stroke-width:2;stroke-miterlimit:10;}
	.st91{clip-path:url(#SVGID_00000178179408499476538750000014618459557005486251_);}
	.st92{clip-path:url(#SVGID_00000152254327506027376340000015578410405437349504_);}
	.st93{fill:none;stroke:url(#SVGID_00000160911131028010798850000012414906804370429109_);stroke-width:6;stroke-miterlimit:10;}
	.st94{fill:none;stroke:url(#SVGID_00000017480149319178001060000008657395040620171179_);stroke-width:6;stroke-miterlimit:10;}
	.st95{fill:url(#SVGID_00000125595367261280157070000000008947124229728180_);}
	.st96{fill:url(#SVGID_00000125590767133148004270000016153230808883278729_);}
	.st97{clip-path:url(#SVGID_00000134970040408195714410000004741020932579494065_);}
	.st98{clip-path:url(#SVGID_00000042735587616481688940000007719736972351739301_);}
	.st99{fill:none;stroke:url(#SVGID_00000119117592128996029500000006629843279082844340_);stroke-width:6;stroke-miterlimit:10;}
	.st100{fill:none;stroke:url(#SVGID_00000059307963309961455260000016338316989915126916_);stroke-width:6;stroke-miterlimit:10;}
	.st101{fill:url(#SVGID_00000057829992221848343900000014804098634318232469_);}
	.st102{fill:url(#SVGID_00000078044747185659176720000000760223233283587247_);}
	.st103{clip-path:url(#SVGID_00000132794256066531325140000000890250960239094430_);}
	.st104{clip-path:url(#SVGID_00000116210953805790932570000003110650289413282701_);}
	
		.st105{fill:none;stroke:url(#SVGID_00000068639322234795767580000016564042156549259183_);stroke-width:1.8028;stroke-miterlimit:10;}
	.st106{fill:none;stroke:#FFFFFF;stroke-width:3.6;stroke-miterlimit:10;}
	.st107{fill:none;stroke:#FFFFFF;stroke-width:1.35;stroke-miterlimit:10;}
	.st108{clip-path:url(#SVGID_00000098939854841900350180000002733825964249167528_);}
	.st109{fill:none;stroke:url(#SVGID_00000021837261822453651190000007270474137351166644_);stroke-width:2;stroke-miterlimit:10;}
	.st110{clip-path:url(#SVGID_00000163783387998832106800000017551851763738861493_);}
	.st111{clip-path:url(#SVGID_00000008865207082373316440000000107243146853278876_);}
	.st112{fill:none;stroke:url(#SVGID_00000173870856441637104780000016764306182223092103_);stroke-width:6;stroke-miterlimit:10;}
	.st113{fill:none;stroke:url(#SVGID_00000132089352325021062190000016185913760643195319_);stroke-width:6;stroke-miterlimit:10;}
	.st114{fill:url(#SVGID_00000050655552863847551060000009073817291901025715_);}
	.st115{fill:url(#SVGID_00000088103574850193244840000009101594533379119497_);}
	.st116{display:none;opacity:0.35;}
	.st117{display:inline;}
	.st118{opacity:0.7;fill:#FFFFFF;}
	.st119{opacity:0.6;fill:#FFFFFF;}
	.st120{fill:#CD48D6;}
	.st121{fill:#C400C6;}
	.st122{fill:#CD576D;}
	.st123{fill:#C4002F;}
	.st124{fill:#C20000;}
	.st125{fill:#D59575;}
	.st126{fill:#CD6E42;}
	.st127{fill:#C00E00;}
	.st128{fill:#FFFF68;}
	.st129{fill:#F9F900;}
	.st130{fill:#DCFFA0;}
	.st131{fill:#51764E;}
	.st132{fill:#CCFFEA;}
	.st133{fill:#BEFFFF;}
	.st134{fill:#A6FFFF;}
	.st135{fill:#7E80FF;}
	.st136{fill:#5045F6;}
	.st137{fill:#2900FC;}
	.st138{fill:#B49FFA;}
	.st139{fill:#9374FF;}
	.st140{fill:#6826D2;}
	.st141{fill:#C2C2C2;}
	.st142{fill:#787878;}
	.st143{fill:#4B4B4B;}
	.st144{fill:#27008D;}
	.st145{fill:#C4B000;}
	.st146{fill:#D5D5D5;}
	.st147{fill-rule:evenodd;clip-rule:evenodd;}
	.st148{opacity:0.1;}
	.st149{fill:none;stroke:#D2FF8E;stroke-width:6;stroke-miterlimit:10;}
	.st150{fill:#D2FF8E;stroke:#D2FF8E;stroke-width:3;stroke-miterlimit:10;}
</style>
<g id="Mobile_-_Dasboard_x2C__wallet_not_connected">
</g>
<g id="Mobile_-_Dashboard">
</g>
<g id="Mobile_-_Staking_Accordians">
</g>
<g id="Moile_-_Staking_LP_x2C__wallet_connected">
</g>
<g id="Mobile_-_Staking_LP_x2C__wallet_not_connected">
</g>
<g id="Mobile_-_Navigation">
</g>
<g id="Mobile_-_HP">
</g>
<g id="Desktop_-_Dashboard_x2C__wallet_not_connected">
</g>
<g id="Desktop_-_Dashboard">
</g>
<g id="Desktop_-_Staking_Popups">
</g>
<g id="Desktop_-_Staking_LP">
</g>
<g id="Desktop_-_HP">
</g>
<g id="_x2A_Labels">
</g>
<g id="_x2A_Color_Palette">
</g>
<g id="_x2A_Type_Styles">
</g>
<g id="_x2A__x2A_WIP_x2A__x2A_">
	<g>
		<g>
			<g>
				<g>
					<g>
						<path class="st8" d="M135.07,85.33c-0.32-0.26-0.66-0.45-1.02-0.6c-0.37,0.16-0.71,0.34-1.02,0.6c-2.08,1.68-2.08,4.84,0,6.54
							c0.32,0.26,0.66,0.45,1.02,0.6c0.37-0.16,0.71-0.34,1.02-0.6C137.12,90.17,137.12,87.01,135.07,85.33z"/>
						<path class="st8" d="M86.9,77.11c-0.26,0.24-0.5,0.5-0.68,0.81c-0.05,0.11-0.13,0.21-0.18,0.32c0,0.03,0.03,0.03,0.03,0.05
							c1.02,1.92,3.44,2.76,5.44,1.84c0.89-0.42,1.58-1.08,2-1.89C92.28,75.85,89.05,75.16,86.9,77.11z"/>
						<path class="st8" d="M124.69,43.99c-0.03-0.5-0.13-0.97-0.34-1.42c-0.29-0.66-0.71-1.18-1.21-1.6
							c-0.6-0.5-1.37-0.81-2.18-0.92c-0.29-0.03-0.55-0.03-0.84,0c-0.42,0.5-0.71,1.1-0.87,1.76c-0.53,2.37,1.08,4.68,3.44,5.05
							c0.34,0.05,0.68,0.05,1.02,0.03C124.37,46.12,124.74,45.12,124.69,43.99z"/>
						<path class="st8" d="M119.8,62.31c-4.07-2.08-8.94-0.18-10.64,3.89c0.68,1.66,1.94,3.05,3.6,3.89
							c4.07,2.08,8.94,0.18,10.64-3.89C122.72,64.57,121.45,63.15,119.8,62.31z"/>
						<path class="st8" d="M158.64,48.33c0.74,0.16,1.47,0.11,2.18-0.11c0.63-0.21,1.24-0.58,1.73-1.08
							c0.29-0.29,0.53-0.6,0.71-0.97c-0.21-0.37-0.45-0.74-0.76-1.05c-0.37-0.37-0.79-0.66-1.26-0.84
							c-1.34-0.58-2.81-0.45-3.99,0.32c-0.6,0.39-1.1,0.95-1.42,1.58C156.38,47.31,157.4,48.09,158.64,48.33z"/>
						<path class="st8" d="M121.27,17.11c-0.53-1.18-1.42-2.13-2.58-2.71c-1.26,0.63-2.23,1.71-2.73,3.05
							c-0.42,1.16-0.42,2.44-0.03,3.6c0.5,1.42,1.5,2.5,2.73,3.1C121.3,22.89,122.45,19.76,121.27,17.11z"/>
						<path class="st8" d="M73.63,44.31c-0.18-0.05-0.39-0.08-0.58-0.08c-0.37,0-0.76,0.11-1.1,0.29l0,0
							c-0.34,0.18-0.6,0.47-0.81,0.81c0.29,0.5,0.76,0.87,1.34,1.02c0.66,0.18,1.34,0.05,1.87-0.37c0.24-0.18,0.45-0.42,0.58-0.66
							C74.65,44.81,74.18,44.47,73.63,44.31z"/>
						<path class="st8" d="M76.75,92.16c-0.53-0.95-1.34-1.63-2.29-1.97c-0.34-0.13-0.71-0.21-1.08-0.24
							c-0.63-0.05-1.24,0.05-1.81,0.26c-0.03,0.11-0.08,0.21-0.11,0.29c-0.39,1.42-0.08,2.84,0.84,3.92l0,0
							c0.92,1.08,2.29,1.63,3.76,1.45c0.32-0.03,0.63-0.13,0.92-0.24c0.24-0.63,0.32-1.34,0.24-2.08
							C77.17,93.08,76.99,92.59,76.75,92.16z"/>
						<path class="st8" d="M119.14,118.89c-0.89-0.55-1.87-0.81-2.84-0.81c-2.05,0-4.07,1.18-4.99,3.23
							c0.55,1.26,1.58,2.29,2.92,2.84c0.84,0.34,1.79,0.47,2.71,0.37c1.76-0.21,3.26-1.24,4.1-2.76c0.08-0.13,0.16-0.29,0.21-0.45
							C120.82,120.36,120.11,119.5,119.14,118.89z"/>
						<path class="st8" d="M161.4,93.06c-0.18-0.34-0.47-0.6-0.81-0.81c-0.5,0.29-0.87,0.76-1.02,1.34
							c-0.18,0.66-0.05,1.34,0.37,1.89c0.18,0.24,0.42,0.45,0.66,0.58c0.5-0.29,0.87-0.76,1.02-1.34
							C161.79,94.16,161.71,93.58,161.4,93.06z"/>
					</g>
					<path class="st8" d="M163.45,51.14c0.47-0.26,0.92-0.58,1.34-0.95c1.05-0.92,1.84-2.1,2.26-3.42c0.79-2.37,0.47-4.86-0.87-6.91
						c-1.16-1.79-2.94-3.02-5.05-3.44c-1.42-0.29-2.81-0.21-4.1,0.21c-0.63,0.21-1.24,0.5-1.79,0.84c-1.1,0.68-2.5,0.68-3.63,0.03
						l-23.65-13.67c-1.58-0.92-2.52-2.6-2.5-4.41c0.03-1.37-0.26-2.73-0.84-3.99c-0.95-2.05-2.6-3.68-4.68-4.6
						c-2.39-1.05-5.02-1.05-7.38,0c-2.26,1-3.99,2.79-4.89,5.07c-0.45,1.13-0.66,2.29-0.63,3.47c0.03,1.84-0.89,3.55-2.5,4.47
						L79.3,38.42c-1.21,0.71-2.68,0.81-3.97,0.29c-0.24-0.11-0.5-0.18-0.76-0.26c-1.55-0.42-3.15-0.21-4.52,0.6l0,0
						c-1.6,0.92-2.68,2.52-2.94,4.41c-0.13,1,0,2,0.37,2.94c0.47,1.16,1.24,2.1,2.21,2.76c0.95,0.63,1.47,1.71,1.47,2.84v32.11
						c0,1.26-0.71,2.39-1.84,3c-0.81,0.42-1.55,1-2.21,1.71c-0.97,1.05-1.63,2.37-1.89,3.76c-0.47,2.44,0.16,4.89,1.76,6.75
						c0.95,1.1,2.13,1.89,3.39,2.34c1.45,0.53,3.05,0.6,4.55,0.24c0.63-0.16,1.66-0.74,2.5-1.26c0.89-0.58,2.05-0.6,2.97-0.08
						l24.12,13.93c1.6,0.92,2.55,2.65,2.52,4.49c0,1.13,0.18,2.26,0.6,3.39c0.63,1.66,1.71,3.1,3.15,4.15
						c1.63,1.18,3.52,1.79,5.44,1.79c1.08,0,2.18-0.18,3.23-0.58c1.6-0.6,3.02-1.63,4.05-3c1.34-1.73,1.94-3.76,1.92-5.76
						c-0.03-1.87,0.97-3.6,2.6-4.52l25.15-14.51c1.21-0.71,2.71-0.84,3.99-0.29c0.24,0.11,0.5,0.18,0.74,0.26
						c0.53,0.13,1.02,0.21,1.55,0.21c1.37,0,2.73-0.47,3.84-1.42c0.66-0.53,1.16-1.21,1.52-1.97c0.87-1.84,0.76-3.86-0.21-5.57
						c-0.34-0.58-0.76-1.1-1.26-1.52c-1.26-1.1-2.02-2.68-2.02-4.36V54.8C161.4,53.3,162.16,51.88,163.45,51.14z M122.01,26.52
						L122.01,26.52c0.79-0.63,1.84-0.68,2.68-0.21L150.05,41c0.47,0.26,0.26,0.97-0.29,0.97l-15.85-0.66
						c-1.45-0.05-2.79-0.89-3.44-2.21c-1.13-2.18-3.23-3.81-5.83-4.23h-0.03c-1.08-0.16-1.94-0.95-2.26-1.97l-1.16-3.86
						C120.93,28.12,121.24,27.1,122.01,26.52z M119.27,41.81c0.45-2.1,2.47-3.52,4.6-3.28c0.81,0.11,1.55,0.42,2.18,0.92
						c0.53,0.42,0.95,0.97,1.21,1.6c0.21,0.45,0.32,0.95,0.34,1.42c0.13,2.76-2.29,4.81-4.86,4.39
						C120.35,46.49,118.75,44.18,119.27,41.81z M123.77,71.14c-1.26,4.78-6.57,7.17-10.98,4.94c-3.21-1.63-4.89-5.33-3.97-8.83
						c1.26-4.78,6.57-7.17,10.98-4.94C123,63.94,124.69,67.65,123.77,71.14z M111.15,17.45c0.6-1.66,1.92-2.92,3.65-3.42
						c0.89-0.26,1.84-0.29,2.76-0.05c1.68,0.42,3.05,1.55,3.73,3.1c1.21,2.76-0.05,5.97-2.81,7.17l0,0
						c-2.89,1.26-6.28-0.18-7.33-3.21C110.73,19.9,110.73,18.61,111.15,17.45z M78.33,47.02c0.39-0.74,0.63-1.55,0.68-2.39
						c0.08-1.05,0.66-2.02,1.58-2.55l26.86-15.5c1.08-0.63,2.42-0.55,3.44,0.18c1.34,0.97,2.92,1.55,4.55,1.71
						c1.02,0.11,1.92,0.81,2.21,1.79l1.18,3.89c0.29,0.95,0,1.97-0.74,2.63c-1.31,1.18-2.26,2.79-2.55,4.68
						c-0.34,2.13,0.18,4.18,1.34,5.81c0.18,0.26,0.6,0.68,1.08,1.1c1,0.89,1.39,2.29,1.05,3.57l-0.87,3.23
						c-0.39,1.42-1.6,2.47-3.07,2.63c-4.15,0.47-7.91,3.18-9.49,7.33c-0.37,0.97-0.6,1.97-0.68,2.97c-0.13,1.39-1.16,2.52-2.5,2.89
						l-3.36,0.89c-1.21,0.32-2.5-0.08-3.34-1c-1.34-1.45-3.15-2.34-5.07-2.52c-1.81-0.18-3.42-1.31-4.26-2.92l-7.99-15.53
						C77.86,49.01,77.86,47.91,78.33,47.02z M91.52,80.13c-2,0.89-4.41,0.08-5.44-1.84c-0.71-1.31-0.68-2.92,0.16-4.26
						c0.18-0.29,0.42-0.58,0.68-0.81c2.15-1.97,5.39-1.26,6.62,1.16C94.62,76.5,93.73,79.13,91.52,80.13z M71.15,45.33
						c-0.29-0.5-0.37-1.1-0.21-1.66c0.16-0.58,0.53-1.05,1.02-1.34l0,0c0.34-0.18,0.71-0.29,1.1-0.29c0.18,0,0.39,0.03,0.58,0.08
						c0.66,0.18,1.18,0.63,1.45,1.26c0.39,0.92,0.11,2.02-0.71,2.63c-0.55,0.39-1.24,0.53-1.87,0.37
						C71.92,46.2,71.44,45.83,71.15,45.33z M75.04,97.87c-0.45,0.24-0.95,0.39-1.45,0.47c-1.47,0.18-2.84-0.37-3.76-1.45l0,0
						c-0.92-1.08-1.24-2.5-0.84-3.92c0.13-0.5,0.39-1,0.71-1.39c0.89-1.16,2.26-1.73,3.65-1.63c0.37,0.03,0.74,0.11,1.08,0.24
						c0.95,0.34,1.76,1.02,2.29,1.97c0.24,0.45,0.39,0.92,0.47,1.42C77.46,95.34,76.62,97,75.04,97.87z M77.8,86.36
						c-0.45,0.5-1.18,0.66-1.79,0.39h-0.03c-0.63-0.24-1.05-0.84-1.05-1.52V53.67c0-0.53,0.71-0.71,0.95-0.24l7.07,13.74
						c0.84,1.63,0.84,3.57-0.08,5.15c-0.66,1.13-1.02,2.42-1.08,3.73C81.77,76.84,81.9,78,82.22,79c0.37,1.21,0.11,2.52-0.76,3.44
						L77.8,86.36z M121.03,121.78c-0.84,1.52-2.34,2.52-4.1,2.76c-0.92,0.11-1.84,0-2.71-0.37c-1.92-0.79-3.18-2.52-3.39-4.6
						c-0.08-0.74,0.03-1.5,0.26-2.18c0.81-2.37,2.97-3.71,5.18-3.71c0.97,0,1.94,0.26,2.84,0.81
						C121.61,115.97,122.45,119.23,121.03,121.78z M121.35,107.64c-0.97,1.55-2.73,2.39-4.55,2.29c-1.84-0.11-3.68,0.34-5.26,1.29
						c-1.55,0.92-3.5,1-5.05,0.08L82.69,97.55c-1-0.58-1.6-1.68-1.45-2.81c0.16-1.21-0.16-2.37-0.6-3.31
						c-0.47-1.05-0.26-2.29,0.53-3.13l3.07-3.34c0.87-0.92,2.18-1.34,3.42-1c1.87,0.53,3.94,0.37,5.78-0.6
						c2.21-1.13,3.65-3.15,4.13-5.39c0.26-1.21,1.21-2.15,2.39-2.47l3.39-0.92c1.31-0.37,2.76,0.13,3.55,1.24
						c1.26,1.79,3.07,3.26,5.28,4.1c2.76,1.05,5.68,0.97,8.23-0.03c1.71-0.66,3.65-0.24,4.97,1.05l1.31,1.31
						c1.16,1.16,1.63,2.81,1.24,4.41c-0.45,1.81-0.24,3.78,0.6,5.49c0.74,1.45,0.6,3.18-0.26,4.55L121.35,107.64z M151.47,96.61
						l-23.89,13.8c-1.21,0.68-2.55-0.66-1.84-1.84l6.04-10.22c0.71-1.18,2.02-1.87,3.42-1.79c2.18,0.13,4.41-0.66,6.1-2.31
						l0.03-0.03c1.18-1.18,2.89-1.63,4.49-1.18c1.71,0.47,3.81,1.05,5.41,1.52C152.17,94.85,152.33,96.13,151.47,96.61z
						 M133.02,85.33c1.52-1.26,3.78-1.26,5.31,0c2.08,1.68,2.08,4.84,0,6.54c-1.52,1.26-3.78,1.26-5.31,0
						C130.94,90.17,130.94,87.01,133.02,85.33z M155.88,89.35l-0.03,0.03c-1.16,0.97-2.65,1.37-4.13,1.02l-5.15-1.21
						c-1.55-0.37-2.84-1.5-3.31-3.02c-0.37-1.18-1.02-2.31-1.97-3.23c-2.05-2.05-4.94-2.73-7.57-2.1c-1.58,0.39-3.23-0.11-4.39-1.24
						l-1.26-1.26c-1.31-1.31-1.73-3.28-1.08-5.05v-0.03c1.87-4.94,0.11-10.38-3.97-13.35c-1.18-0.87-1.71-2.37-1.34-3.78l0.81-3.07
						c0.34-1.26,1.34-2.29,2.6-2.58c2.05-0.47,3.84-1.73,4.94-3.52c0.79-1.24,2.15-2,3.63-1.92l15.72,0.66
						c1.24,0.05,2.29,0.81,2.81,1.92c0.74,1.58,1.97,2.89,3.55,3.71c1.08,0.55,1.79,1.66,1.79,2.89v31.54
						C157.61,87.15,156.98,88.46,155.88,89.35z M161.4,93.06c0.29,0.5,0.37,1.1,0.21,1.66c-0.18,0.66-0.63,1.18-1.26,1.45
						c-0.92,0.39-2.05,0.11-2.63-0.71c-0.39-0.55-0.53-1.24-0.37-1.89c0.16-0.58,0.53-1.05,1.02-1.34c0.34-0.18,0.71-0.29,1.1-0.29
						c0.18,0,0.39,0.03,0.58,0.08C160.64,92.19,161.11,92.56,161.4,93.06z M160.79,48.23c-0.68,0.24-1.45,0.26-2.18,0.11
						c-1.37-0.29-2.52-1.24-3.05-2.6c-0.18-0.5-0.29-1.02-0.29-1.55c0.03-1.47,0.74-2.73,1.92-3.52c1.18-0.76,2.65-0.89,3.99-0.32
						c0.47,0.21,0.89,0.5,1.26,0.84c1.26,1.26,1.6,3.1,0.89,4.73c-0.18,0.45-0.47,0.87-0.81,1.21
						C162.03,47.67,161.43,48.02,160.79,48.23z"/>
				</g>
				<g>
					<g>
						<path class="st8" d="M176.25,63.1l3.63-4.05c2.65,3.65,5.86,5.33,9.78,5.33c3.28,0,5.73-1.21,5.73-4.44
							c0-2.13-1.13-3.57-4.55-4.18l-4.86-0.89c-5.07-0.92-8.25-3.68-8.25-8.67c0-6.04,4.6-9.04,10.77-9.04
							c4.39,0,8.46,1.52,11.43,4.68l-3.26,4.07c-2.29-2.6-5.44-3.97-8.49-3.97c-2.73,0-4.76,1.1-4.76,3.71
							c0,1.79,0.95,3.15,3.92,3.68l4.84,0.89c5.36,0.97,9.04,3.76,9.04,9.22c0,6.2-4.68,10.04-11.9,10.04
							C183.82,69.51,178.93,67.17,176.25,63.1z"/>
						<path class="st8" d="M209.91,53.4c0-10.35,5.62-16.21,14.74-16.21c9.04,0,14.77,5.86,14.77,16.21s-5.73,16.21-14.77,16.21
							C215.53,69.62,209.91,63.76,209.91,53.4z M233.54,53.4c0-6.78-3.18-11.06-8.88-11.06c-5.78,0-8.88,4.28-8.88,11.06
							c0,6.81,3.1,11.09,8.88,11.09C230.36,64.49,233.54,60.21,233.54,53.4z"/>
						<path class="st8" d="M250.07,37.66h5.94v26.41h15.06v5.07h-21L250.07,37.66z"/>
						<path class="st8" d="M280.6,37.66h5.94v31.51h-5.94V37.66z"/>
						<path class="st8" d="M299.16,37.66h11.51c10.83,0,15.79,5.81,15.79,15.93c0,9.93-5.18,15.58-15.82,15.58h-11.46V37.66H299.16z
							 M310.09,64.05c7.49,0,10.46-3.68,10.46-10.7c0-6.83-2.79-10.56-9.96-10.56h-5.49v21.26H310.09z"/>
					</g>
				</g>
				<g>
					<path class="st8" d="M200.42,88.67v14.32h-3.65l-0.03-3.97c-1.47,2.42-4.44,4.34-8.59,4.34c-7.67,0-11.98-5.81-11.98-13.93
						c0-8.54,4.81-13.93,12.61-13.93c5.62,0,9.49,2.97,11.12,7.25l-3.73,1.45c-1.24-3.15-3.76-5.02-7.36-5.02
						c-5.41,0-8.38,4.18-8.38,10.17c0,5.49,2.44,10.2,8.2,10.2c4.57,0,7.38-2.97,7.81-7.41h-6.96V88.7h10.96V88.67z"/>
					<path class="st8" d="M210.7,75.9h11.98c5.2,0,8.83,2.94,8.83,7.7c0,3.71-2.1,6.25-5.52,7.15l6.49,12.27h-4.86l-5.86-11.69
						h-6.83v11.69h-4.26V75.9H210.7z M222.81,87.86c3,0,4.44-1.66,4.44-4.13c0-2.63-1.66-4.15-4.84-4.15h-7.44v8.28H222.81z"/>
					<path class="st8" d="M239.53,89.43c0-8.78,4.78-13.93,12.48-13.93c7.62,0,12.48,5.15,12.48,13.93c0,8.8-4.86,13.93-12.48,13.93
						C244.34,103.36,239.53,98.24,239.53,89.43z M260.32,89.43c0-6.23-3.07-10.17-8.3-10.17c-5.28,0-8.3,3.94-8.3,10.17
						c0,6.23,3,10.2,8.3,10.2C257.21,99.63,260.32,95.66,260.32,89.43z"/>
					<path class="st8" d="M273.56,93.19V75.9h4.26v17.45c0,3.86,2.15,6.15,5.78,6.15c3.63,0,5.81-2.31,5.81-6.15V75.9h4.28v17.08
						c0,6.54-3.57,10.38-10.09,10.38C277.11,103.36,273.56,99.58,273.56,93.19z"/>
					<path class="st8" d="M304.47,75.9h12.88c5.62,0,9.09,3.26,9.09,8.67c0,5.28-3.31,8.33-9.09,8.33h-8.62v10.09h-4.26V75.9z
						 M316.97,89.22c3.57,0,5.23-1.6,5.23-4.7c0-3.1-1.66-4.94-5.23-4.94h-8.25v9.64L316.97,89.22z"/>
				</g>
			</g>
		</g>
	</g>
</g>
</svg>
