<svg xmlns="http://www.w3.org/2000/svg" viewBox="0 0 60.24 69.38"><defs><style>.cls-1,.cls-2{fill:#fff;}.cls-2{fill-rule:evenodd;}</style></defs><g id="Layer_2" data-name="Layer 2"><g id="Desktop_-_Dashboard" data-name="Desktop - Dashboard"><path class="cls-1" d="M23.62,15.78c-.75-.11-.79-.14-.43-.18a11.72,11.72,0,0,1,3.36.29c2.58.61,4.9,2.18,7.37,4.93l.65.76.93-.15A20,20,0,0,1,47,22.86a14.4,14.4,0,0,1,2.57,1.51,3.38,3.38,0,0,1,.25,1,6.06,6.06,0,0,1-.39,3.9,1,1,0,0,0-.11,1.14,1.09,1.09,0,0,0,1,.61c.86,0,1.75-1.36,2.18-3.25L52.6,27l.32.35a14,14,0,0,1,3.47,6.87l.07.54-.32-.47a5.9,5.9,0,0,0-1.71-1.82c-1.22-.82-2.51-1.07-5.91-1.25a24.36,24.36,0,0,1-6.55-1c-2.93-1-4.43-2.22-7.9-6.84a32.53,32.53,0,0,0-3.48-4.08A12.13,12.13,0,0,0,23.62,15.78Z"/><path class="cls-1" d="M50.27,20.32a7.89,7.89,0,0,1,.65-3.07,2.45,2.45,0,0,1,.32-.61s0,.25-.14.54A6.85,6.85,0,0,0,51,20.32c.26,1.61.36,1.83,2.08,3.58.79.83,1.72,1.86,2.08,2.29l.6.79-.6-.57a21.76,21.76,0,0,0-2.87-2.26c-.25-.14-.28-.14-.46,0s-.18.36-.18,1.39a7.66,7.66,0,0,1-.79,3.65c-.28.54-.32.43-.07-.18A5.19,5.19,0,0,0,51,26.84c0-3.12-.35-3.87-2.54-5.12-.53-.32-1.46-.79-2-1a9.79,9.79,0,0,1-1-.46,15.62,15.62,0,0,1,3,.89c1.25.5,1.47.54,1.61.5S50.24,21.22,50.27,20.32Z"/><path class="cls-1" d="M25.08,25.66A12.71,12.71,0,0,1,22.83,18l.07-.75.36.07a8.65,8.65,0,0,1,2.29.86c1.43.86,2.07,2,2.68,5,.18.86.43,1.87.54,2.19a13.05,13.05,0,0,0,1.43,2.57c.39.58.14.86-.75.79A7.34,7.34,0,0,1,25.08,25.66Z"/><path class="cls-1" d="M48.45,41.22c-7.08-2.86-9.59-5.33-9.59-9.52,0-.61,0-1.11,0-1.11s.28.22.6.47c1.44,1.14,3,1.64,7.52,2.29a31.38,31.38,0,0,1,5.47,1.14c4.33,1.43,7,4.37,7.66,8.34a14.6,14.6,0,0,1-.21,4.47,8.92,8.92,0,0,1-1.15,2.58s-.11-.18-.11-.47a5.82,5.82,0,0,0-2.07-4C55.11,44.08,53.17,43.12,48.45,41.22Z"/><path class="cls-1" d="M43.44,42.4a7.87,7.87,0,0,0-.36-1.5l-.18-.54.33.4a6.3,6.3,0,0,1,1.14,2.07,4.48,4.48,0,0,1,.25,2,4.51,4.51,0,0,1-.25,1.94,6.58,6.58,0,0,1-1.5,2.39,8.63,8.63,0,0,1-5.37,2.37c-.43,0-1.65.14-2.72.21a21,21,0,0,0-6.08,1c-.22.07-.43.15-.47.11a8.16,8.16,0,0,1,1.94-1.15,19.73,19.73,0,0,1,5.36-1.43,24.51,24.51,0,0,0,3.19-.64C42.26,48.52,44,45.76,43.44,42.4Z"/><path class="cls-1" d="M46.7,48.16a8.35,8.35,0,0,1-.65-5.79c.07-.18.15-.36.22-.36a1.45,1.45,0,0,1,.5.25c.43.28,1.32.79,3.61,2a18.22,18.22,0,0,1,5.69,4.18A9,9,0,0,1,58,52.81a14.17,14.17,0,0,1-.18,4.26,10.55,10.55,0,0,1-5.19,6.87,4.66,4.66,0,0,1-.75.36,2.82,2.82,0,0,1,.32-.79A7.06,7.06,0,0,0,52.49,58a22.39,22.39,0,0,0-2.86-5.16A33.18,33.18,0,0,1,46.7,48.16Z"/><path class="cls-1" d="M20,59.11A19.41,19.41,0,0,1,29,54.82a12.91,12.91,0,0,1,4.61.18,8,8,0,0,1,4.51,2.89,10.65,10.65,0,0,1,1.65,4.87c.14,1,.32,2,.36,2.18a4.81,4.81,0,0,0,1.57,2.83c1.11.82,3,.86,4.94.14a3.31,3.31,0,0,1,.61-.18,5.35,5.35,0,0,1-1.54,1,5,5,0,0,1-2.58.61,5.16,5.16,0,0,1-4.36-2.68,21,21,0,0,1-1.18-2.36c-1.26-2.9-1.9-3.76-3.37-4.73A4.4,4.4,0,0,0,30,59.22a2.68,2.68,0,0,0-.93,4.18,3.63,3.63,0,0,0,2,1.08,2.18,2.18,0,0,0,2.46-2.18,1.72,1.72,0,0,0-1.18-1.76C31.24,60,30,60.61,30,61.72a1,1,0,0,0,.68,1c.29.14.29.14.07.11a1.33,1.33,0,0,1-.46-2.33,2.58,2.58,0,0,1,3.83.82,3.82,3.82,0,0,1,.07,2.44,3.36,3.36,0,0,1-4.08,1.93C29,65.34,28.45,65,27,63.55c-2.51-2.58-3.47-3.08-7-3.62l-.68-.1Z"/><path class="cls-2" d="M1.22,1.54C9.56,11.66,22.4,27.41,23,28.27s.33,1.39-.57,1.89a5.42,5.42,0,0,1-2,.58A2.55,2.55,0,0,1,18.72,30c-.33-.32-1.72-2.36-4.87-7.26-2.4-3.76-4.44-6.87-4.47-6.9s-.15-.08,4.22,7.72c2.75,4.91,3.65,6.66,3.65,6.87,0,.47-.14.72-.72,1.36-1,1.08-1.39,2.29-1.71,4.83-.36,2.83-1.33,4.84-4.08,8.23A15.34,15.34,0,0,0,8.48,48a6,6,0,0,0-.71,2.86,8.88,8.88,0,0,0,.46,3.51A12,12,0,0,0,10,57.75a8.45,8.45,0,0,1,1.32,2.61c0,.29.07.29,1.36,0,3.08-.71,5.62-1.93,7-3.43a3.26,3.26,0,0,0,1.07-2.72,3,3,0,0,0-.25-1.5A6.41,6.41,0,0,0,18,50.27C16,49,15.21,47.88,15,46.44c-.17-1.21,0-2,1.11-4.29a12.85,12.85,0,0,0,1.58-5.65c.11-1.51.28-2.11.71-2.58a2.67,2.67,0,0,1,2-.82,6.58,6.58,0,0,0,3.94-1.61,3.36,3.36,0,0,0,1.21-2.61l0-.83-.47-.5C23.4,25.62.11,0,0,0S.54.68,1.22,1.54Zm11,50.88a1.48,1.48,0,0,0-.46-2c-.61-.39-1.54-.21-1.54.32a.36.36,0,0,0,.29.36c.32.18.35.36.1.75s-.25.75.07,1A1,1,0,0,0,12.2,52.42Z"/><path class="cls-2" d="M26.69,33.6a3.19,3.19,0,0,0-1.93,2.11,3.1,3.1,0,0,0,.18,1.93c.39.5.75.65,1.75.65,2,0,3.65-.86,3.83-1.9a2.77,2.77,0,0,0-1.61-2.58A3.67,3.67,0,0,0,26.69,33.6ZM29,35.39a.81.81,0,0,0-.35-1.22c-1-.61-2.44-.11-2.44.82,0,.47.76,1,1.47,1A2,2,0,0,0,29,35.39Z"/></g></g></svg>