<svg xmlns="http://www.w3.org/2000/svg" viewBox="0 0 82.63 71.58"><defs><style>.cls-1{fill:#fff;}</style></defs><g id="Layer_2" data-name="Layer 2"><g id="Mobile_-_Navigation" data-name="Mobile - Navigation"><rect class="cls-1" x="7.51" width="60.38" height="3.77"/><rect class="cls-1" x="-28.3" y="35.77" width="60.38" height="3.77" transform="translate(39.54 35.77) rotate(90)"/><rect class="cls-1" x="7.51" y="67.78" width="60.38" height="3.77"/><polyline class="cls-1" points="74.36 31.23 70.13 31.23 70.13 7.68 74.36 7.68"/><rect class="cls-1" x="60.42" y="53.79" width="23.71" height="4.22" transform="translate(16.36 128.18) rotate(-90)"/><rect class="cls-1" x="45.3" y="34.83" width="10.77" height="4" transform="translate(87.51 -13.86) rotate(90)"/><rect class="cls-1" x="52.67" y="27.54" width="26.3" height="4" transform="translate(131.64 59.09) rotate(180)"/><rect class="cls-1" x="52.7" y="42.05" width="26.3" height="4" transform="translate(131.69 88.11) rotate(180)"/><rect class="cls-1" x="75.01" y="34.81" width="11.24" height="4" transform="translate(43.82 117.44) rotate(-90)"/><rect class="cls-1" x="67.59" y="67.78" width="3.82" height="3.77" transform="translate(-0.17 139.16) rotate(-90)"/><rect class="cls-1" x="3.75" y="67.78" width="3.82" height="3.77" transform="translate(-64.01 75.33) rotate(-90)"/><rect class="cls-1" x="67.59" y="3.89" width="3.82" height="3.77" transform="translate(63.71 75.28) rotate(-90)"/><rect class="cls-1" x="3.75" y="3.89" width="3.82" height="3.77" transform="translate(-0.12 11.44) rotate(-90)"/></g></g></svg>